<<<<<<< Updated upstream
<mxfile host="Electron" agent="Mozilla/5.0 (Windows NT 10.0; Win64; x64) AppleWebKit/537.36 (KHTML, like Gecko) draw.io/24.4.0 Chrome/120.0.6099.109 Electron/28.1.0 Safari/537.36" modified="2025-01-07T00:54:37.409Z" etag="gvNvtniEFPYFhMRwo3DY" version="24.4.0" type="device">
  <diagram id="C5RBs43oDa-KdzZeNtuy" name="Page-1">
    <mxGraphModel dx="1050" dy="621" grid="1" gridSize="10" guides="1" tooltips="1" connect="1" arrows="1" fold="1" page="1" pageScale="1" pageWidth="1169" pageHeight="827" math="0" shadow="0">
=======
<mxfile host="Electron" agent="Mozilla/5.0 (Windows NT 10.0; Win64; x64) AppleWebKit/537.36 (KHTML, like Gecko) draw.io/24.4.0 Chrome/120.0.6099.109 Electron/28.1.0 Safari/537.36" modified="2025-01-03T03:31:58.472Z" etag="LRg7C4Qti4EfXmLsBoPO" version="24.4.0" type="device">
  <diagram id="C5RBs43oDa-KdzZeNtuy" name="Page-1">
    <mxGraphModel dx="1235" dy="1558" grid="1" gridSize="10" guides="1" tooltips="1" connect="1" arrows="1" fold="1" page="1" pageScale="1" pageWidth="1169" pageHeight="827" math="0" shadow="0">
>>>>>>> Stashed changes
      <root>
        <mxCell id="WIyWlLk6GJQsqaUBKTNV-0" />
        <mxCell id="WIyWlLk6GJQsqaUBKTNV-1" parent="WIyWlLk6GJQsqaUBKTNV-0" />
        <mxCell id="x0Ebby3f6C95ohtFIqQS-0" value="&lt;div&gt;&lt;span style=&quot;background-color: initial;&quot;&gt;User&lt;/span&gt;&lt;br&gt;&lt;/div&gt;" style="swimlane;fontStyle=1;align=center;verticalAlign=top;childLayout=stackLayout;horizontal=1;startSize=30;horizontalStack=0;resizeParent=1;resizeParentMax=0;resizeLast=0;collapsible=1;marginBottom=0;whiteSpace=wrap;html=1;fillColor=#ffe6cc;strokeColor=#d79b00;" parent="WIyWlLk6GJQsqaUBKTNV-1" vertex="1">
<<<<<<< Updated upstream
          <mxGeometry x="320" y="43" width="160" height="264" as="geometry">
=======
          <mxGeometry x="320" y="-60" width="160" height="264" as="geometry">
>>>>>>> Stashed changes
            <mxRectangle x="285" y="109" width="70" height="30" as="alternateBounds" />
          </mxGeometry>
        </mxCell>
        <mxCell id="emaAQf_MCwO-FVbNsSKt-1" value="#&lt;b&gt; internId&lt;/b&gt;: text" style="text;strokeColor=none;fillColor=none;align=left;verticalAlign=top;spacingLeft=4;spacingRight=4;overflow=hidden;rotatable=0;points=[[0,0.5],[1,0.5]];portConstraint=eastwest;whiteSpace=wrap;html=1;" parent="x0Ebby3f6C95ohtFIqQS-0" vertex="1">
          <mxGeometry y="30" width="160" height="26" as="geometry" />
        </mxCell>
        <mxCell id="x0Ebby3f6C95ohtFIqQS-1" value="# &lt;b&gt;name&lt;/b&gt;: text" style="text;strokeColor=none;fillColor=none;align=left;verticalAlign=top;spacingLeft=4;spacingRight=4;overflow=hidden;rotatable=0;points=[[0,0.5],[1,0.5]];portConstraint=eastwest;whiteSpace=wrap;html=1;" parent="x0Ebby3f6C95ohtFIqQS-0" vertex="1">
          <mxGeometry y="56" width="160" height="26" as="geometry" />
        </mxCell>
        <mxCell id="rPhPrc9EmJT0JEbO7Rp2-25" value="# &lt;b&gt;email&lt;/b&gt;: text" style="text;strokeColor=none;fillColor=none;align=left;verticalAlign=top;spacingLeft=4;spacingRight=4;overflow=hidden;rotatable=0;points=[[0,0.5],[1,0.5]];portConstraint=eastwest;whiteSpace=wrap;html=1;" parent="x0Ebby3f6C95ohtFIqQS-0" vertex="1">
          <mxGeometry y="82" width="160" height="26" as="geometry" />
        </mxCell>
        <mxCell id="rPhPrc9EmJT0JEbO7Rp2-27" value="# &lt;b&gt;address&lt;/b&gt;: text" style="text;strokeColor=none;fillColor=none;align=left;verticalAlign=top;spacingLeft=4;spacingRight=4;overflow=hidden;rotatable=0;points=[[0,0.5],[1,0.5]];portConstraint=eastwest;whiteSpace=wrap;html=1;" parent="x0Ebby3f6C95ohtFIqQS-0" vertex="1">
          <mxGeometry y="108" width="160" height="26" as="geometry" />
        </mxCell>
        <mxCell id="rPhPrc9EmJT0JEbO7Rp2-30" value="# &lt;b&gt;phone&lt;/b&gt;: text" style="text;strokeColor=none;fillColor=none;align=left;verticalAlign=top;spacingLeft=4;spacingRight=4;overflow=hidden;rotatable=0;points=[[0,0.5],[1,0.5]];portConstraint=eastwest;whiteSpace=wrap;html=1;" parent="x0Ebby3f6C95ohtFIqQS-0" vertex="1">
          <mxGeometry y="134" width="160" height="26" as="geometry" />
        </mxCell>
        <mxCell id="rPhPrc9EmJT0JEbO7Rp2-26" value="# &lt;b&gt;birthDate&lt;/b&gt;: date" style="text;strokeColor=none;fillColor=none;align=left;verticalAlign=top;spacingLeft=4;spacingRight=4;overflow=hidden;rotatable=0;points=[[0,0.5],[1,0.5]];portConstraint=eastwest;whiteSpace=wrap;html=1;" parent="x0Ebby3f6C95ohtFIqQS-0" vertex="1">
          <mxGeometry y="160" width="160" height="26" as="geometry" />
        </mxCell>
        <mxCell id="rPhPrc9EmJT0JEbO7Rp2-28" value="# &lt;b&gt;hashPassword&lt;/b&gt;: text" style="text;strokeColor=none;fillColor=none;align=left;verticalAlign=top;spacingLeft=4;spacingRight=4;overflow=hidden;rotatable=0;points=[[0,0.5],[1,0.5]];portConstraint=eastwest;whiteSpace=wrap;html=1;" parent="x0Ebby3f6C95ohtFIqQS-0" vertex="1">
          <mxGeometry y="186" width="160" height="26" as="geometry" />
        </mxCell>
        <mxCell id="R4sOLZEa-TKl13n7Rvy1-32" value="# &lt;b&gt;role&lt;/b&gt;: Role" style="text;strokeColor=none;fillColor=none;align=left;verticalAlign=top;spacingLeft=4;spacingRight=4;overflow=hidden;rotatable=0;points=[[0,0.5],[1,0.5]];portConstraint=eastwest;whiteSpace=wrap;html=1;" parent="x0Ebby3f6C95ohtFIqQS-0" vertex="1">
          <mxGeometry y="212" width="160" height="26" as="geometry" />
        </mxCell>
        <mxCell id="qfP9cwapI_imA948ndJV-0" value="# &lt;b&gt;docId&lt;/b&gt;: text" style="text;strokeColor=none;fillColor=none;align=left;verticalAlign=top;spacingLeft=4;spacingRight=4;overflow=hidden;rotatable=0;points=[[0,0.5],[1,0.5]];portConstraint=eastwest;whiteSpace=wrap;html=1;" parent="x0Ebby3f6C95ohtFIqQS-0" vertex="1">
          <mxGeometry y="238" width="160" height="26" as="geometry" />
        </mxCell>
        <mxCell id="x0Ebby3f6C95ohtFIqQS-4" value="Secretary" style="swimlane;fontStyle=1;align=center;verticalAlign=top;childLayout=stackLayout;horizontal=1;startSize=26;horizontalStack=0;resizeParent=1;resizeParentMax=0;resizeLast=0;collapsible=1;marginBottom=0;whiteSpace=wrap;html=1;fillColor=#dae8fc;strokeColor=#6c8ebf;" parent="WIyWlLk6GJQsqaUBKTNV-1" vertex="1">
<<<<<<< Updated upstream
          <mxGeometry x="80" y="401.05" width="160" height="78" as="geometry">
=======
          <mxGeometry x="80" y="298.05" width="160" height="78" as="geometry">
>>>>>>> Stashed changes
            <mxRectangle x="125" y="300" width="100" height="30" as="alternateBounds" />
          </mxGeometry>
        </mxCell>
        <mxCell id="rPhPrc9EmJT0JEbO7Rp2-35" value="- &lt;b&gt;position&lt;/b&gt;: text" style="text;strokeColor=none;fillColor=none;align=left;verticalAlign=top;spacingLeft=4;spacingRight=4;overflow=hidden;rotatable=0;points=[[0,0.5],[1,0.5]];portConstraint=eastwest;whiteSpace=wrap;html=1;" parent="x0Ebby3f6C95ohtFIqQS-4" vertex="1">
          <mxGeometry y="26" width="160" height="26" as="geometry" />
        </mxCell>
        <mxCell id="emaAQf_MCwO-FVbNsSKt-2" value="- &lt;b&gt;building: Building&lt;/b&gt;" style="text;strokeColor=none;fillColor=none;align=left;verticalAlign=top;spacingLeft=4;spacingRight=4;overflow=hidden;rotatable=0;points=[[0,0.5],[1,0.5]];portConstraint=eastwest;whiteSpace=wrap;html=1;" parent="x0Ebby3f6C95ohtFIqQS-4" vertex="1">
          <mxGeometry y="52" width="160" height="26" as="geometry" />
        </mxCell>
<<<<<<< Updated upstream
        <mxCell id="vqzUbXH-pOmgLkUmb4zZ-0" style="edgeStyle=orthogonalEdgeStyle;rounded=0;orthogonalLoop=1;jettySize=auto;html=1;exitX=1;exitY=0.25;exitDx=0;exitDy=0;entryX=0;entryY=0.5;entryDx=0;entryDy=0;endArrow=none;endFill=0;" parent="WIyWlLk6GJQsqaUBKTNV-1" source="x0Ebby3f6C95ohtFIqQS-10" target="O_hNdu-dtPVLeKDtcmgr-26" edge="1">
          <mxGeometry relative="1" as="geometry" />
        </mxCell>
        <mxCell id="x0Ebby3f6C95ohtFIqQS-10" value="Student" style="swimlane;fontStyle=1;align=center;verticalAlign=top;childLayout=stackLayout;horizontal=1;startSize=26;horizontalStack=0;resizeParent=1;resizeParentMax=0;resizeLast=0;collapsible=1;marginBottom=0;whiteSpace=wrap;html=1;fillColor=#dae8fc;strokeColor=#6c8ebf;" parent="WIyWlLk6GJQsqaUBKTNV-1" vertex="1">
          <mxGeometry x="701.06" y="395.05" width="160" height="52" as="geometry">
=======
        <mxCell id="x0Ebby3f6C95ohtFIqQS-10" value="Student" style="swimlane;fontStyle=1;align=center;verticalAlign=top;childLayout=stackLayout;horizontal=1;startSize=26;horizontalStack=0;resizeParent=1;resizeParentMax=0;resizeLast=0;collapsible=1;marginBottom=0;whiteSpace=wrap;html=1;fillColor=#dae8fc;strokeColor=#6c8ebf;" parent="WIyWlLk6GJQsqaUBKTNV-1" vertex="1">
          <mxGeometry x="650.06" y="291.95" width="160" height="52" as="geometry">
>>>>>>> Stashed changes
            <mxRectangle x="345" y="300" width="100" height="30" as="alternateBounds" />
          </mxGeometry>
        </mxCell>
        <mxCell id="x0Ebby3f6C95ohtFIqQS-14" value="Teacher" style="swimlane;fontStyle=1;align=center;verticalAlign=top;childLayout=stackLayout;horizontal=1;startSize=26;horizontalStack=0;resizeParent=1;resizeParentMax=0;resizeLast=0;collapsible=1;marginBottom=0;whiteSpace=wrap;html=1;fillColor=#dae8fc;strokeColor=#6c8ebf;" parent="WIyWlLk6GJQsqaUBKTNV-1" vertex="1">
<<<<<<< Updated upstream
          <mxGeometry x="320" y="693" width="160" height="78" as="geometry">
=======
          <mxGeometry x="320" y="590" width="160" height="78" as="geometry">
>>>>>>> Stashed changes
            <mxRectangle x="570" y="300" width="80" height="30" as="alternateBounds" />
          </mxGeometry>
        </mxCell>
        <mxCell id="rPhPrc9EmJT0JEbO7Rp2-33" value="- &lt;b&gt;academicLevel&lt;/b&gt;: text&amp;nbsp;" style="text;strokeColor=none;fillColor=none;align=left;verticalAlign=top;spacingLeft=4;spacingRight=4;overflow=hidden;rotatable=0;points=[[0,0.5],[1,0.5]];portConstraint=eastwest;whiteSpace=wrap;html=1;" parent="x0Ebby3f6C95ohtFIqQS-14" vertex="1">
          <mxGeometry y="26" width="160" height="26" as="geometry" />
        </mxCell>
        <mxCell id="rPhPrc9EmJT0JEbO7Rp2-34" value="- &lt;b&gt;course&lt;/b&gt;: text&amp;nbsp;" style="text;strokeColor=none;fillColor=none;align=left;verticalAlign=top;spacingLeft=4;spacingRight=4;overflow=hidden;rotatable=0;points=[[0,0.5],[1,0.5]];portConstraint=eastwest;whiteSpace=wrap;html=1;" parent="x0Ebby3f6C95ohtFIqQS-14" vertex="1">
          <mxGeometry y="52" width="160" height="26" as="geometry" />
        </mxCell>
        <mxCell id="x0Ebby3f6C95ohtFIqQS-18" value="StudyPlan" style="swimlane;fontStyle=1;align=center;verticalAlign=top;childLayout=stackLayout;horizontal=1;startSize=26;horizontalStack=0;resizeParent=1;resizeParentMax=0;resizeLast=0;collapsible=1;marginBottom=0;whiteSpace=wrap;html=1;fillColor=#d5e8d4;strokeColor=#82b366;" parent="WIyWlLk6GJQsqaUBKTNV-1" vertex="1">
<<<<<<< Updated upstream
          <mxGeometry x="1117.52" y="983.84" width="160" height="52" as="geometry">
=======
          <mxGeometry x="1034.19" y="816.8400000000001" width="160" height="52" as="geometry">
>>>>>>> Stashed changes
            <mxRectangle x="350" y="360" width="70" height="30" as="alternateBounds" />
          </mxGeometry>
        </mxCell>
        <mxCell id="lyx5QjdWIEwCXilWNKK9-53" value="- &lt;b&gt;acadYear&lt;/b&gt;: text" style="text;strokeColor=none;fillColor=none;align=left;verticalAlign=top;spacingLeft=4;spacingRight=4;overflow=hidden;rotatable=0;points=[[0,0.5],[1,0.5]];portConstraint=eastwest;whiteSpace=wrap;html=1;" parent="x0Ebby3f6C95ohtFIqQS-18" vertex="1">
          <mxGeometry y="26" width="160" height="26" as="geometry" />
        </mxCell>
        <mxCell id="x0Ebby3f6C95ohtFIqQS-30" value="Class" style="swimlane;fontStyle=1;align=center;verticalAlign=top;childLayout=stackLayout;horizontal=1;startSize=26;horizontalStack=0;resizeParent=1;resizeParentMax=0;resizeLast=0;collapsible=1;marginBottom=0;whiteSpace=wrap;html=1;fillColor=#dae8fc;strokeColor=#6c8ebf;" parent="WIyWlLk6GJQsqaUBKTNV-1" vertex="1">
<<<<<<< Updated upstream
          <mxGeometry x="1399.84" y="1035.8400000000001" width="160" height="78" as="geometry">
=======
          <mxGeometry x="1316.51" y="868.8400000000001" width="160" height="78" as="geometry">
>>>>>>> Stashed changes
            <mxRectangle x="310" y="440" width="100" height="30" as="alternateBounds" />
          </mxGeometry>
        </mxCell>
        <mxCell id="x0Ebby3f6C95ohtFIqQS-31" value="- &lt;b&gt;name&lt;/b&gt;: text" style="text;strokeColor=none;fillColor=none;align=left;verticalAlign=top;spacingLeft=4;spacingRight=4;overflow=hidden;rotatable=0;points=[[0,0.5],[1,0.5]];portConstraint=eastwest;whiteSpace=wrap;html=1;" parent="x0Ebby3f6C95ohtFIqQS-30" vertex="1">
          <mxGeometry y="26" width="160" height="26" as="geometry" />
        </mxCell>
        <mxCell id="lyx5QjdWIEwCXilWNKK9-21" value="- &lt;b&gt;roomId&lt;/b&gt;: text" style="text;strokeColor=none;fillColor=none;align=left;verticalAlign=top;spacingLeft=4;spacingRight=4;overflow=hidden;rotatable=0;points=[[0,0.5],[1,0.5]];portConstraint=eastwest;whiteSpace=wrap;html=1;" parent="x0Ebby3f6C95ohtFIqQS-30" vertex="1">
          <mxGeometry y="52" width="160" height="26" as="geometry" />
        </mxCell>
        <mxCell id="x0Ebby3f6C95ohtFIqQS-34" value="Course" style="swimlane;fontStyle=1;align=center;verticalAlign=top;childLayout=stackLayout;horizontal=1;startSize=26;horizontalStack=0;resizeParent=1;resizeParentMax=0;resizeLast=0;collapsible=1;marginBottom=0;whiteSpace=wrap;html=1;fillColor=#dae8fc;strokeColor=#6c8ebf;" parent="WIyWlLk6GJQsqaUBKTNV-1" vertex="1">
<<<<<<< Updated upstream
          <mxGeometry x="1381.0000000000002" y="643" width="160" height="78" as="geometry">
=======
          <mxGeometry x="1074.3300000000004" y="331.90000000000003" width="160" height="78" as="geometry">
>>>>>>> Stashed changes
            <mxRectangle x="195" y="661" width="80" height="30" as="alternateBounds" />
          </mxGeometry>
        </mxCell>
        <mxCell id="x0Ebby3f6C95ohtFIqQS-35" value="- &lt;b&gt;name&lt;/b&gt;: text" style="text;strokeColor=none;fillColor=none;align=left;verticalAlign=top;spacingLeft=4;spacingRight=4;overflow=hidden;rotatable=0;points=[[0,0.5],[1,0.5]];portConstraint=eastwest;whiteSpace=wrap;html=1;" parent="x0Ebby3f6C95ohtFIqQS-34" vertex="1">
          <mxGeometry y="26" width="160" height="26" as="geometry" />
        </mxCell>
        <mxCell id="lyx5QjdWIEwCXilWNKK9-32" value="- &lt;b&gt;duration&lt;/b&gt;: integer" style="text;strokeColor=none;fillColor=none;align=left;verticalAlign=top;spacingLeft=4;spacingRight=4;overflow=hidden;rotatable=0;points=[[0,0.5],[1,0.5]];portConstraint=eastwest;whiteSpace=wrap;html=1;" parent="x0Ebby3f6C95ohtFIqQS-34" vertex="1">
          <mxGeometry y="52" width="160" height="26" as="geometry" />
        </mxCell>
<<<<<<< Updated upstream
        <mxCell id="x0Ebby3f6C95ohtFIqQS-38" value="Enrollment" style="swimlane;fontStyle=1;align=center;verticalAlign=top;childLayout=stackLayout;horizontal=1;startSize=26;horizontalStack=0;resizeParent=1;resizeParentMax=0;resizeLast=0;collapsible=1;marginBottom=0;whiteSpace=wrap;html=1;fillColor=#dae8fc;strokeColor=#6c8ebf;" parent="WIyWlLk6GJQsqaUBKTNV-1" vertex="1">
          <mxGeometry x="1117.46" y="643" width="160" height="104" as="geometry">
=======
        <mxCell id="R4sOLZEa-TKl13n7Rvy1-69" style="edgeStyle=orthogonalEdgeStyle;rounded=0;orthogonalLoop=1;jettySize=auto;html=1;exitX=0.75;exitY=0;exitDx=0;exitDy=0;entryX=0.5;entryY=0.998;entryDx=0;entryDy=0;entryPerimeter=0;endArrow=none;endFill=0;" parent="WIyWlLk6GJQsqaUBKTNV-1" source="x0Ebby3f6C95ohtFIqQS-38" target="lyx5QjdWIEwCXilWNKK9-32" edge="1">
          <mxGeometry relative="1" as="geometry">
            <mxPoint x="1251.6666666666667" y="288.95" as="targetPoint" />
          </mxGeometry>
        </mxCell>
        <mxCell id="x0Ebby3f6C95ohtFIqQS-38" value="Enrollment" style="swimlane;fontStyle=1;align=center;verticalAlign=top;childLayout=stackLayout;horizontal=1;startSize=26;horizontalStack=0;resizeParent=1;resizeParentMax=0;resizeLast=0;collapsible=1;marginBottom=0;whiteSpace=wrap;html=1;fillColor=#dae8fc;strokeColor=#6c8ebf;" parent="WIyWlLk6GJQsqaUBKTNV-1" vertex="1">
          <mxGeometry x="1034.13" y="476" width="160" height="104" as="geometry">
>>>>>>> Stashed changes
            <mxRectangle x="455" y="661" width="80" height="30" as="alternateBounds" />
          </mxGeometry>
        </mxCell>
        <mxCell id="lyx5QjdWIEwCXilWNKK9-18" value="- &lt;b&gt;level&lt;/b&gt;: Level" style="text;strokeColor=none;fillColor=none;align=left;verticalAlign=top;spacingLeft=4;spacingRight=4;overflow=hidden;rotatable=0;points=[[0,0.5],[1,0.5]];portConstraint=eastwest;whiteSpace=wrap;html=1;" parent="x0Ebby3f6C95ohtFIqQS-38" vertex="1">
          <mxGeometry y="26" width="160" height="26" as="geometry" />
        </mxCell>
        <mxCell id="x0Ebby3f6C95ohtFIqQS-39" value="- &lt;b&gt;class: &lt;/b&gt;Class" style="text;strokeColor=none;fillColor=none;align=left;verticalAlign=top;spacingLeft=4;spacingRight=4;overflow=hidden;rotatable=0;points=[[0,0.5],[1,0.5]];portConstraint=eastwest;whiteSpace=wrap;html=1;" parent="x0Ebby3f6C95ohtFIqQS-38" vertex="1">
          <mxGeometry y="52" width="160" height="26" as="geometry" />
        </mxCell>
        <mxCell id="Na8gEu5Ey_Q5j3jmP6cr-6" value="- &lt;b&gt;acadYear: &lt;/b&gt;text" style="text;strokeColor=none;fillColor=none;align=left;verticalAlign=top;spacingLeft=4;spacingRight=4;overflow=hidden;rotatable=0;points=[[0,0.5],[1,0.5]];portConstraint=eastwest;whiteSpace=wrap;html=1;" parent="x0Ebby3f6C95ohtFIqQS-38" vertex="1">
          <mxGeometry y="78" width="160" height="26" as="geometry" />
        </mxCell>
        <mxCell id="x0Ebby3f6C95ohtFIqQS-42" value="Extends" style="endArrow=block;endSize=16;endFill=0;html=1;rounded=0;entryX=0.008;entryY=0.992;entryDx=0;entryDy=0;entryPerimeter=0;exitX=0.5;exitY=0;exitDx=0;exitDy=0;" parent="WIyWlLk6GJQsqaUBKTNV-1" source="x0Ebby3f6C95ohtFIqQS-4" target="qfP9cwapI_imA948ndJV-0" edge="1">
          <mxGeometry width="160" relative="1" as="geometry">
<<<<<<< Updated upstream
            <mxPoint x="70" y="291.05" as="sourcePoint" />
            <mxPoint x="330.32000000000016" y="293.3880000000002" as="targetPoint" />
          </mxGeometry>
        </mxCell>
        <mxCell id="x0Ebby3f6C95ohtFIqQS-55" value="Unit" style="swimlane;fontStyle=1;align=center;verticalAlign=top;childLayout=stackLayout;horizontal=1;startSize=26;horizontalStack=0;resizeParent=1;resizeParentMax=0;resizeLast=0;collapsible=1;marginBottom=0;whiteSpace=wrap;html=1;fillColor=#dae8fc;strokeColor=#6c8ebf;" parent="WIyWlLk6GJQsqaUBKTNV-1" vertex="1">
          <mxGeometry x="850" y="1074.89" width="160" height="52" as="geometry" />
=======
            <mxPoint x="70" y="188.05" as="sourcePoint" />
            <mxPoint x="330.32000000000016" y="190.3880000000002" as="targetPoint" />
          </mxGeometry>
        </mxCell>
        <mxCell id="x0Ebby3f6C95ohtFIqQS-55" value="Unit" style="swimlane;fontStyle=1;align=center;verticalAlign=top;childLayout=stackLayout;horizontal=1;startSize=26;horizontalStack=0;resizeParent=1;resizeParentMax=0;resizeLast=0;collapsible=1;marginBottom=0;whiteSpace=wrap;html=1;fillColor=#dae8fc;strokeColor=#6c8ebf;" parent="WIyWlLk6GJQsqaUBKTNV-1" vertex="1">
          <mxGeometry x="780" y="938.8400000000001" width="160" height="52" as="geometry" />
>>>>>>> Stashed changes
        </mxCell>
        <mxCell id="x0Ebby3f6C95ohtFIqQS-56" value="- &lt;b&gt;name&lt;/b&gt;: text" style="text;strokeColor=none;fillColor=none;align=left;verticalAlign=top;spacingLeft=4;spacingRight=4;overflow=hidden;rotatable=0;points=[[0,0.5],[1,0.5]];portConstraint=eastwest;whiteSpace=wrap;html=1;" parent="x0Ebby3f6C95ohtFIqQS-55" vertex="1">
          <mxGeometry y="26" width="160" height="26" as="geometry" />
        </mxCell>
        <mxCell id="C_oh2TMeIHpBrAPbJOL9-4" value="Extends" style="endArrow=block;endSize=16;endFill=0;html=1;rounded=0;exitX=0.5;exitY=0;exitDx=0;exitDy=0;entryX=1.003;entryY=0.992;entryDx=0;entryDy=0;entryPerimeter=0;" parent="WIyWlLk6GJQsqaUBKTNV-1" source="x0Ebby3f6C95ohtFIqQS-10" target="qfP9cwapI_imA948ndJV-0" edge="1">
          <mxGeometry width="160" relative="1" as="geometry">
<<<<<<< Updated upstream
            <mxPoint x="465" y="391.05" as="sourcePoint" />
            <mxPoint x="489.84000000000015" y="292.9980000000001" as="targetPoint" />
=======
            <mxPoint x="465" y="288.05" as="sourcePoint" />
            <mxPoint x="489.84000000000015" y="189.9980000000001" as="targetPoint" />
>>>>>>> Stashed changes
          </mxGeometry>
        </mxCell>
        <mxCell id="C_oh2TMeIHpBrAPbJOL9-5" value="Extends" style="endArrow=block;endSize=16;endFill=0;html=1;rounded=0;exitX=0.5;exitY=0;exitDx=0;exitDy=0;entryX=0.5;entryY=1;entryDx=0;entryDy=0;" parent="WIyWlLk6GJQsqaUBKTNV-1" source="x0Ebby3f6C95ohtFIqQS-14" target="x0Ebby3f6C95ohtFIqQS-0" edge="1">
          <mxGeometry width="160" relative="1" as="geometry">
<<<<<<< Updated upstream
            <mxPoint x="450" y="381.05" as="sourcePoint" />
            <mxPoint x="400" y="323" as="targetPoint" />
          </mxGeometry>
        </mxCell>
        <mxCell id="rPhPrc9EmJT0JEbO7Rp2-0" value="Classification" style="swimlane;fontStyle=1;align=center;verticalAlign=top;childLayout=stackLayout;horizontal=1;startSize=26;horizontalStack=0;resizeParent=1;resizeParentMax=0;resizeLast=0;collapsible=1;marginBottom=0;whiteSpace=wrap;html=1;fillColor=#dae8fc;strokeColor=#6c8ebf;" parent="WIyWlLk6GJQsqaUBKTNV-1" vertex="1">
          <mxGeometry x="1396.2" y="843.8399999999999" width="170" height="104" as="geometry" />
=======
            <mxPoint x="450" y="278.05" as="sourcePoint" />
            <mxPoint x="400" y="220" as="targetPoint" />
          </mxGeometry>
        </mxCell>
        <mxCell id="rPhPrc9EmJT0JEbO7Rp2-0" value="Classification" style="swimlane;fontStyle=1;align=center;verticalAlign=top;childLayout=stackLayout;horizontal=1;startSize=26;horizontalStack=0;resizeParent=1;resizeParentMax=0;resizeLast=0;collapsible=1;marginBottom=0;whiteSpace=wrap;html=1;fillColor=#dae8fc;strokeColor=#6c8ebf;" parent="WIyWlLk6GJQsqaUBKTNV-1" vertex="1">
          <mxGeometry x="1391.6700000000003" y="564.8399999999999" width="170" height="130" as="geometry" />
>>>>>>> Stashed changes
        </mxCell>
        <mxCell id="rPhPrc9EmJT0JEbO7Rp2-1" value="- &lt;b&gt;finalGrade&lt;/b&gt;: decimal" style="text;strokeColor=none;fillColor=none;align=left;verticalAlign=top;spacingLeft=4;spacingRight=4;overflow=hidden;rotatable=0;points=[[0,0.5],[1,0.5]];portConstraint=eastwest;whiteSpace=wrap;html=1;" parent="rPhPrc9EmJT0JEbO7Rp2-0" vertex="1">
          <mxGeometry y="26" width="170" height="26" as="geometry" />
        </mxCell>
<<<<<<< Updated upstream
        <mxCell id="lyx5QjdWIEwCXilWNKK9-10" value="- &lt;b&gt;retaken: &lt;/b&gt;boolean" style="text;strokeColor=none;fillColor=none;align=left;verticalAlign=top;spacingLeft=4;spacingRight=4;overflow=hidden;rotatable=0;points=[[0,0.5],[1,0.5]];portConstraint=eastwest;whiteSpace=wrap;html=1;" parent="rPhPrc9EmJT0JEbO7Rp2-0" vertex="1">
=======
        <mxCell id="lyx5QjdWIEwCXilWNKK9-10" value="- &lt;b&gt;retaked: &lt;/b&gt;boolean" style="text;strokeColor=none;fillColor=none;align=left;verticalAlign=top;spacingLeft=4;spacingRight=4;overflow=hidden;rotatable=0;points=[[0,0.5],[1,0.5]];portConstraint=eastwest;whiteSpace=wrap;html=1;" parent="rPhPrc9EmJT0JEbO7Rp2-0" vertex="1">
>>>>>>> Stashed changes
          <mxGeometry y="52" width="170" height="26" as="geometry" />
        </mxCell>
        <mxCell id="eIcUPRR4atYr4VNpyihu-0" value="- &lt;b&gt;retakeGrade&lt;/b&gt;: decimal" style="text;strokeColor=none;fillColor=none;align=left;verticalAlign=top;spacingLeft=4;spacingRight=4;overflow=hidden;rotatable=0;points=[[0,0.5],[1,0.5]];portConstraint=eastwest;whiteSpace=wrap;html=1;" parent="rPhPrc9EmJT0JEbO7Rp2-0" vertex="1">
          <mxGeometry y="78" width="170" height="26" as="geometry" />
        </mxCell>
<<<<<<< Updated upstream
        <mxCell id="rPhPrc9EmJT0JEbO7Rp2-7" value="TrimestralAssessment" style="swimlane;fontStyle=1;align=center;verticalAlign=top;childLayout=stackLayout;horizontal=1;startSize=26;horizontalStack=0;resizeParent=1;resizeParentMax=0;resizeLast=0;collapsible=1;marginBottom=0;whiteSpace=wrap;html=1;fillColor=#dae8fc;strokeColor=#6c8ebf;" parent="WIyWlLk6GJQsqaUBKTNV-1" vertex="1">
          <mxGeometry x="1680.68" y="843.8400000000001" width="160" height="130" as="geometry" />
=======
        <mxCell id="ZZszPudMttv8xMkQPxiv-19" value="- &lt;b&gt;student&lt;/b&gt;: Student" style="text;strokeColor=none;fillColor=none;align=left;verticalAlign=top;spacingLeft=4;spacingRight=4;overflow=hidden;rotatable=0;points=[[0,0.5],[1,0.5]];portConstraint=eastwest;whiteSpace=wrap;html=1;" vertex="1" parent="rPhPrc9EmJT0JEbO7Rp2-0">
          <mxGeometry y="104" width="170" height="26" as="geometry" />
        </mxCell>
        <mxCell id="rPhPrc9EmJT0JEbO7Rp2-7" value="TrimestralAssessment" style="swimlane;fontStyle=1;align=center;verticalAlign=top;childLayout=stackLayout;horizontal=1;startSize=26;horizontalStack=0;resizeParent=1;resizeParentMax=0;resizeLast=0;collapsible=1;marginBottom=0;whiteSpace=wrap;html=1;fillColor=#dae8fc;strokeColor=#6c8ebf;" parent="WIyWlLk6GJQsqaUBKTNV-1" vertex="1">
          <mxGeometry x="1665.51" y="564.8400000000001" width="160" height="130" as="geometry" />
>>>>>>> Stashed changes
        </mxCell>
        <mxCell id="rPhPrc9EmJT0JEbO7Rp2-8" value="- &lt;b&gt;p1&lt;/b&gt;: decimal" style="text;strokeColor=none;fillColor=none;align=left;verticalAlign=top;spacingLeft=4;spacingRight=4;overflow=hidden;rotatable=0;points=[[0,0.5],[1,0.5]];portConstraint=eastwest;whiteSpace=wrap;html=1;" parent="rPhPrc9EmJT0JEbO7Rp2-7" vertex="1">
          <mxGeometry y="26" width="160" height="26" as="geometry" />
        </mxCell>
        <mxCell id="lyx5QjdWIEwCXilWNKK9-16" value="- &lt;b&gt;p2&lt;/b&gt;: decimal" style="text;strokeColor=none;fillColor=none;align=left;verticalAlign=top;spacingLeft=4;spacingRight=4;overflow=hidden;rotatable=0;points=[[0,0.5],[1,0.5]];portConstraint=eastwest;whiteSpace=wrap;html=1;" parent="rPhPrc9EmJT0JEbO7Rp2-7" vertex="1">
          <mxGeometry y="52" width="160" height="26" as="geometry" />
        </mxCell>
        <mxCell id="lyx5QjdWIEwCXilWNKK9-17" value="- &lt;b&gt;mt&lt;/b&gt;: decimal" style="text;strokeColor=none;fillColor=none;align=left;verticalAlign=top;spacingLeft=4;spacingRight=4;overflow=hidden;rotatable=0;points=[[0,0.5],[1,0.5]];portConstraint=eastwest;whiteSpace=wrap;html=1;" parent="rPhPrc9EmJT0JEbO7Rp2-7" vertex="1">
          <mxGeometry y="78" width="160" height="26" as="geometry" />
        </mxCell>
        <mxCell id="Na8gEu5Ey_Q5j3jmP6cr-5" value="- &lt;b&gt;triId&lt;/b&gt;: integer" style="text;strokeColor=none;fillColor=none;align=left;verticalAlign=top;spacingLeft=4;spacingRight=4;overflow=hidden;rotatable=0;points=[[0,0.5],[1,0.5]];portConstraint=eastwest;whiteSpace=wrap;html=1;" parent="rPhPrc9EmJT0JEbO7Rp2-7" vertex="1">
          <mxGeometry y="104" width="160" height="26" as="geometry" />
        </mxCell>
        <mxCell id="rPhPrc9EmJT0JEbO7Rp2-18" value="TimeSlot" style="swimlane;fontStyle=1;align=center;verticalAlign=top;childLayout=stackLayout;horizontal=1;startSize=26;horizontalStack=0;resizeParent=1;resizeParentMax=0;resizeLast=0;collapsible=1;marginBottom=0;whiteSpace=wrap;html=1;fillColor=#dae8fc;strokeColor=#6c8ebf;" parent="WIyWlLk6GJQsqaUBKTNV-1" vertex="1">
<<<<<<< Updated upstream
          <mxGeometry x="1117.52" y="1139.94" width="160" height="78" as="geometry" />
=======
          <mxGeometry x="1034.19" y="972.94" width="160" height="78" as="geometry" />
>>>>>>> Stashed changes
        </mxCell>
        <mxCell id="rPhPrc9EmJT0JEbO7Rp2-19" value="- &lt;b&gt;start&lt;/b&gt;: time" style="text;strokeColor=none;fillColor=none;align=left;verticalAlign=top;spacingLeft=4;spacingRight=4;overflow=hidden;rotatable=0;points=[[0,0.5],[1,0.5]];portConstraint=eastwest;whiteSpace=wrap;html=1;" parent="rPhPrc9EmJT0JEbO7Rp2-18" vertex="1">
          <mxGeometry y="26" width="160" height="26" as="geometry" />
        </mxCell>
        <mxCell id="lyx5QjdWIEwCXilWNKK9-35" value="- &lt;b&gt;end&lt;/b&gt;: time" style="text;strokeColor=none;fillColor=none;align=left;verticalAlign=top;spacingLeft=4;spacingRight=4;overflow=hidden;rotatable=0;points=[[0,0.5],[1,0.5]];portConstraint=eastwest;whiteSpace=wrap;html=1;" parent="rPhPrc9EmJT0JEbO7Rp2-18" vertex="1">
          <mxGeometry y="52" width="160" height="26" as="geometry" />
        </mxCell>
        <mxCell id="lyx5QjdWIEwCXilWNKK9-2" value="1" style="edgeLabel;resizable=0;html=1;align=right;verticalAlign=bottom;" parent="WIyWlLk6GJQsqaUBKTNV-1" connectable="0" vertex="1">
<<<<<<< Updated upstream
          <mxGeometry x="785.9969979578777" y="480.0045205319272" as="geometry">
            <mxPoint x="11" y="-4" as="offset" />
          </mxGeometry>
        </mxCell>
        <mxCell id="lyx5QjdWIEwCXilWNKK9-7" value="- &lt;b&gt;clss&lt;/b&gt;" style="text;strokeColor=none;fillColor=none;align=left;verticalAlign=top;spacingLeft=4;spacingRight=4;overflow=hidden;rotatable=0;points=[[0,0.5],[1,0.5]];portConstraint=eastwest;whiteSpace=wrap;html=1;" parent="WIyWlLk6GJQsqaUBKTNV-1" vertex="1">
          <mxGeometry x="1349.7800000000002" y="879.79" width="41.22" height="26" as="geometry" />
        </mxCell>
        <mxCell id="lyx5QjdWIEwCXilWNKK9-8" value="1" style="edgeLabel;resizable=0;html=1;align=right;verticalAlign=bottom;" parent="WIyWlLk6GJQsqaUBKTNV-1" connectable="0" vertex="1">
          <mxGeometry x="1380.9969979578777" y="927.8445205319272" as="geometry" />
        </mxCell>
        <mxCell id="lyx5QjdWIEwCXilWNKK9-9" value="3" style="edgeLabel;resizable=0;html=1;align=right;verticalAlign=bottom;" parent="WIyWlLk6GJQsqaUBKTNV-1" connectable="0" vertex="1">
          <mxGeometry x="1662.6769979578778" y="905.7945205319272" as="geometry" />
        </mxCell>
        <mxCell id="lyx5QjdWIEwCXilWNKK9-19" value="- &lt;b&gt;class&lt;/b&gt;" style="text;strokeColor=none;fillColor=none;align=left;verticalAlign=top;spacingLeft=4;spacingRight=4;overflow=hidden;rotatable=0;points=[[0,0.5],[1,0.5]];portConstraint=eastwest;whiteSpace=wrap;html=1;" parent="WIyWlLk6GJQsqaUBKTNV-1" vertex="1">
          <mxGeometry x="1349.78" y="1059.92" width="50.06" height="26" as="geometry" />
        </mxCell>
        <mxCell id="lyx5QjdWIEwCXilWNKK9-20" value="1" style="edgeLabel;resizable=0;html=1;align=right;verticalAlign=bottom;" parent="WIyWlLk6GJQsqaUBKTNV-1" connectable="0" vertex="1">
          <mxGeometry x="1390.6769979578776" y="1106.4645205319273" as="geometry" />
        </mxCell>
        <mxCell id="lyx5QjdWIEwCXilWNKK9-24" value="&lt;div&gt;&lt;i style=&quot;font-weight: normal;&quot;&gt;«Enum»&lt;/i&gt;&lt;/div&gt;&lt;div&gt;&lt;span style=&quot;text-align: left;&quot;&gt;Level&lt;/span&gt;&lt;/div&gt;" style="swimlane;fontStyle=1;align=center;verticalAlign=top;childLayout=stackLayout;horizontal=1;startSize=42;horizontalStack=0;resizeParent=1;resizeParentMax=0;resizeLast=0;collapsible=1;marginBottom=0;whiteSpace=wrap;html=1;fillColor=#bac8d3;strokeColor=#23445d;" parent="WIyWlLk6GJQsqaUBKTNV-1" vertex="1">
          <mxGeometry x="928.94" y="721" width="100" height="146" as="geometry" />
        </mxCell>
        <mxCell id="lyx5QjdWIEwCXilWNKK9-27" value="12" style="text;strokeColor=none;fillColor=none;align=left;verticalAlign=top;spacingLeft=4;spacingRight=4;overflow=hidden;rotatable=0;points=[[0,0.5],[1,0.5]];portConstraint=eastwest;whiteSpace=wrap;html=1;" parent="lyx5QjdWIEwCXilWNKK9-24" vertex="1">
          <mxGeometry y="42" width="100" height="26" as="geometry" />
        </mxCell>
        <mxCell id="lyx5QjdWIEwCXilWNKK9-28" value="13" style="text;strokeColor=none;fillColor=none;align=left;verticalAlign=top;spacingLeft=4;spacingRight=4;overflow=hidden;rotatable=0;points=[[0,0.5],[1,0.5]];portConstraint=eastwest;whiteSpace=wrap;html=1;" parent="lyx5QjdWIEwCXilWNKK9-24" vertex="1">
          <mxGeometry y="68" width="100" height="26" as="geometry" />
        </mxCell>
        <mxCell id="lyx5QjdWIEwCXilWNKK9-26" value="11" style="text;strokeColor=none;fillColor=none;align=left;verticalAlign=top;spacingLeft=4;spacingRight=4;overflow=hidden;rotatable=0;points=[[0,0.5],[1,0.5]];portConstraint=eastwest;whiteSpace=wrap;html=1;" parent="lyx5QjdWIEwCXilWNKK9-24" vertex="1">
          <mxGeometry y="94" width="100" height="26" as="geometry" />
        </mxCell>
        <mxCell id="lyx5QjdWIEwCXilWNKK9-25" value="10" style="text;strokeColor=none;fillColor=none;align=left;verticalAlign=top;spacingLeft=4;spacingRight=4;overflow=hidden;rotatable=0;points=[[0,0.5],[1,0.5]];portConstraint=eastwest;whiteSpace=wrap;html=1;" parent="lyx5QjdWIEwCXilWNKK9-24" vertex="1">
          <mxGeometry y="120" width="100" height="26" as="geometry" />
        </mxCell>
        <mxCell id="lyx5QjdWIEwCXilWNKK9-34" value="1" style="edgeLabel;resizable=0;html=1;align=right;verticalAlign=bottom;" parent="WIyWlLk6GJQsqaUBKTNV-1" connectable="0" vertex="1">
          <mxGeometry x="1211.0569979578777" y="1131.8445205319272" as="geometry" />
        </mxCell>
        <mxCell id="lyx5QjdWIEwCXilWNKK9-57" value="- &lt;b&gt;unit&lt;/b&gt;" style="text;strokeColor=none;fillColor=none;align=left;verticalAlign=top;spacingLeft=4;spacingRight=4;overflow=hidden;rotatable=0;points=[[0,0.5],[1,0.5]];portConstraint=eastwest;whiteSpace=wrap;html=1;" parent="WIyWlLk6GJQsqaUBKTNV-1" vertex="1">
          <mxGeometry x="1014.94" y="1087.89" width="50.06" height="26" as="geometry" />
        </mxCell>
        <mxCell id="lyx5QjdWIEwCXilWNKK9-58" value="1" style="edgeLabel;resizable=0;html=1;align=right;verticalAlign=bottom;" parent="WIyWlLk6GJQsqaUBKTNV-1" connectable="0" vertex="1">
          <mxGeometry x="1028.9369979578778" y="1131.8945205319274" as="geometry" />
        </mxCell>
        <mxCell id="lyx5QjdWIEwCXilWNKK9-59" value="1" style="edgeLabel;resizable=0;html=1;align=right;verticalAlign=bottom;" parent="WIyWlLk6GJQsqaUBKTNV-1" connectable="0" vertex="1">
          <mxGeometry x="389.99699795787774" y="801.4345205319272" as="geometry" />
        </mxCell>
        <mxCell id="lyx5QjdWIEwCXilWNKK9-60" value="1...*" style="edgeLabel;resizable=0;html=1;align=right;verticalAlign=bottom;" parent="WIyWlLk6GJQsqaUBKTNV-1" connectable="0" vertex="1">
          <mxGeometry x="1100.9969979578777" y="1017.8445205319274" as="geometry" />
        </mxCell>
        <mxCell id="R4sOLZEa-TKl13n7Rvy1-4" value="Registry" style="swimlane;fontStyle=1;align=center;verticalAlign=top;childLayout=stackLayout;horizontal=1;startSize=26;horizontalStack=0;resizeParent=1;resizeParentMax=0;resizeLast=0;collapsible=1;marginBottom=0;whiteSpace=wrap;html=1;fillColor=#dae8fc;strokeColor=#6c8ebf;" parent="WIyWlLk6GJQsqaUBKTNV-1" vertex="1">
          <mxGeometry x="701" y="533" width="160" height="104" as="geometry" />
=======
          <mxGeometry x="734.9969979578777" y="370.9045205319272" as="geometry">
            <mxPoint x="11" y="-4" as="offset" />
          </mxGeometry>
        </mxCell>
        <mxCell id="lyx5QjdWIEwCXilWNKK9-9" value="3" style="edgeLabel;resizable=0;html=1;align=right;verticalAlign=bottom;" parent="WIyWlLk6GJQsqaUBKTNV-1" connectable="0" vertex="1">
          <mxGeometry x="1640.506997957878" y="623.1745205319273" as="geometry" />
        </mxCell>
        <mxCell id="lyx5QjdWIEwCXilWNKK9-19" value="- &lt;b&gt;class&lt;/b&gt;" style="text;strokeColor=none;fillColor=none;align=left;verticalAlign=top;spacingLeft=4;spacingRight=4;overflow=hidden;rotatable=0;points=[[0,0.5],[1,0.5]];portConstraint=eastwest;whiteSpace=wrap;html=1;" parent="WIyWlLk6GJQsqaUBKTNV-1" vertex="1">
          <mxGeometry x="1266.45" y="892.9200000000001" width="50.06" height="26" as="geometry" />
        </mxCell>
        <mxCell id="lyx5QjdWIEwCXilWNKK9-20" value="1" style="edgeLabel;resizable=0;html=1;align=right;verticalAlign=bottom;" parent="WIyWlLk6GJQsqaUBKTNV-1" connectable="0" vertex="1">
          <mxGeometry x="1307.3469979578776" y="939.4645205319274" as="geometry" />
        </mxCell>
        <mxCell id="lyx5QjdWIEwCXilWNKK9-24" value="&lt;div&gt;&lt;i style=&quot;font-weight: normal;&quot;&gt;«Enum»&lt;/i&gt;&lt;/div&gt;&lt;div&gt;&lt;span style=&quot;text-align: left;&quot;&gt;Level&lt;/span&gt;&lt;/div&gt;" style="swimlane;fontStyle=1;align=center;verticalAlign=top;childLayout=stackLayout;horizontal=1;startSize=42;horizontalStack=0;resizeParent=1;resizeParentMax=0;resizeLast=0;collapsible=1;marginBottom=0;whiteSpace=wrap;html=1;fillColor=#bac8d3;strokeColor=#23445d;" parent="WIyWlLk6GJQsqaUBKTNV-1" vertex="1">
          <mxGeometry x="1330" y="365.44000000000005" width="100" height="146" as="geometry" />
        </mxCell>
        <mxCell id="lyx5QjdWIEwCXilWNKK9-25" value="10" style="text;strokeColor=none;fillColor=none;align=left;verticalAlign=top;spacingLeft=4;spacingRight=4;overflow=hidden;rotatable=0;points=[[0,0.5],[1,0.5]];portConstraint=eastwest;whiteSpace=wrap;html=1;" parent="lyx5QjdWIEwCXilWNKK9-24" vertex="1">
          <mxGeometry y="42" width="100" height="26" as="geometry" />
        </mxCell>
        <mxCell id="lyx5QjdWIEwCXilWNKK9-26" value="11" style="text;strokeColor=none;fillColor=none;align=left;verticalAlign=top;spacingLeft=4;spacingRight=4;overflow=hidden;rotatable=0;points=[[0,0.5],[1,0.5]];portConstraint=eastwest;whiteSpace=wrap;html=1;" parent="lyx5QjdWIEwCXilWNKK9-24" vertex="1">
          <mxGeometry y="68" width="100" height="26" as="geometry" />
        </mxCell>
        <mxCell id="lyx5QjdWIEwCXilWNKK9-27" value="12" style="text;strokeColor=none;fillColor=none;align=left;verticalAlign=top;spacingLeft=4;spacingRight=4;overflow=hidden;rotatable=0;points=[[0,0.5],[1,0.5]];portConstraint=eastwest;whiteSpace=wrap;html=1;" parent="lyx5QjdWIEwCXilWNKK9-24" vertex="1">
          <mxGeometry y="94" width="100" height="26" as="geometry" />
        </mxCell>
        <mxCell id="lyx5QjdWIEwCXilWNKK9-28" value="13" style="text;strokeColor=none;fillColor=none;align=left;verticalAlign=top;spacingLeft=4;spacingRight=4;overflow=hidden;rotatable=0;points=[[0,0.5],[1,0.5]];portConstraint=eastwest;whiteSpace=wrap;html=1;" parent="lyx5QjdWIEwCXilWNKK9-24" vertex="1">
          <mxGeometry y="120" width="100" height="26" as="geometry" />
        </mxCell>
        <mxCell id="lyx5QjdWIEwCXilWNKK9-34" value="1" style="edgeLabel;resizable=0;html=1;align=right;verticalAlign=bottom;" parent="WIyWlLk6GJQsqaUBKTNV-1" connectable="0" vertex="1">
          <mxGeometry x="1127.7269979578778" y="964.8445205319274" as="geometry" />
        </mxCell>
        <mxCell id="lyx5QjdWIEwCXilWNKK9-59" value="1" style="edgeLabel;resizable=0;html=1;align=right;verticalAlign=bottom;" parent="WIyWlLk6GJQsqaUBKTNV-1" connectable="0" vertex="1">
          <mxGeometry x="389.99699795787774" y="691.0045205319273" as="geometry" />
        </mxCell>
        <mxCell id="lyx5QjdWIEwCXilWNKK9-60" value="1...*" style="edgeLabel;resizable=0;html=1;align=right;verticalAlign=bottom;" parent="WIyWlLk6GJQsqaUBKTNV-1" connectable="0" vertex="1">
          <mxGeometry x="1017.6669979578778" y="842.8445205319275" as="geometry" />
        </mxCell>
        <mxCell id="R4sOLZEa-TKl13n7Rvy1-4" value="Registry" style="swimlane;fontStyle=1;align=center;verticalAlign=top;childLayout=stackLayout;horizontal=1;startSize=26;horizontalStack=0;resizeParent=1;resizeParentMax=0;resizeLast=0;collapsible=1;marginBottom=0;whiteSpace=wrap;html=1;fillColor=#dae8fc;strokeColor=#6c8ebf;" parent="WIyWlLk6GJQsqaUBKTNV-1" vertex="1">
          <mxGeometry x="650" y="423.9" width="160" height="104" as="geometry" />
>>>>>>> Stashed changes
        </mxCell>
        <mxCell id="R4sOLZEa-TKl13n7Rvy1-5" value="-&amp;nbsp;&lt;b&gt;date&lt;/b&gt;: date" style="text;strokeColor=none;fillColor=none;align=left;verticalAlign=top;spacingLeft=4;spacingRight=4;overflow=hidden;rotatable=0;points=[[0,0.5],[1,0.5]];portConstraint=eastwest;whiteSpace=wrap;html=1;" parent="R4sOLZEa-TKl13n7Rvy1-4" vertex="1">
          <mxGeometry y="26" width="160" height="26" as="geometry" />
        </mxCell>
        <mxCell id="wbrQK4F61QkgtMWtcAEV-4" value="- &lt;b&gt;status&lt;/b&gt;: Status" style="text;strokeColor=none;fillColor=none;align=left;verticalAlign=top;spacingLeft=4;spacingRight=4;overflow=hidden;rotatable=0;points=[[0,0.5],[1,0.5]];portConstraint=eastwest;whiteSpace=wrap;html=1;" parent="R4sOLZEa-TKl13n7Rvy1-4" vertex="1">
          <mxGeometry y="52" width="160" height="26" as="geometry" />
        </mxCell>
        <mxCell id="h_vmbEvHAPqt6KJx8O-b-0" value="- &lt;b&gt;approved&lt;/b&gt;: boolean" style="text;strokeColor=none;fillColor=none;align=left;verticalAlign=top;spacingLeft=4;spacingRight=4;overflow=hidden;rotatable=0;points=[[0,0.5],[1,0.5]];portConstraint=eastwest;whiteSpace=wrap;html=1;" parent="R4sOLZEa-TKl13n7Rvy1-4" vertex="1">
          <mxGeometry y="78" width="160" height="26" as="geometry" />
        </mxCell>
<<<<<<< Updated upstream
        <mxCell id="R4sOLZEa-TKl13n7Rvy1-15" value="" style="endArrow=none;html=1;edgeStyle=orthogonalEdgeStyle;rounded=0;entryX=0.501;entryY=1.001;entryDx=0;entryDy=0;entryPerimeter=0;exitX=0.5;exitY=0;exitDx=0;exitDy=0;" parent="WIyWlLk6GJQsqaUBKTNV-1" source="R4sOLZEa-TKl13n7Rvy1-4" edge="1">
          <mxGeometry relative="1" as="geometry">
            <mxPoint x="706" y="593" as="sourcePoint" />
            <mxPoint x="781.22" y="453.076" as="targetPoint" />
=======
        <mxCell id="R4sOLZEa-TKl13n7Rvy1-14" value="0...*" style="edgeLabel;resizable=0;html=1;align=right;verticalAlign=bottom;" parent="WIyWlLk6GJQsqaUBKTNV-1" connectable="0" vertex="1">
          <mxGeometry x="849.9969979578777" y="532.9545205319272" as="geometry" />
        </mxCell>
        <mxCell id="R4sOLZEa-TKl13n7Rvy1-15" value="" style="endArrow=none;html=1;edgeStyle=orthogonalEdgeStyle;rounded=0;entryX=0.501;entryY=1.001;entryDx=0;entryDy=0;entryPerimeter=0;exitX=0.5;exitY=0;exitDx=0;exitDy=0;" parent="WIyWlLk6GJQsqaUBKTNV-1" source="R4sOLZEa-TKl13n7Rvy1-4" edge="1">
          <mxGeometry relative="1" as="geometry">
            <mxPoint x="655" y="483.9" as="sourcePoint" />
            <mxPoint x="730.22" y="343.976" as="targetPoint" />
>>>>>>> Stashed changes
          </mxGeometry>
        </mxCell>
        <mxCell id="R4sOLZEa-TKl13n7Rvy1-16" value="- &lt;b&gt;registries&lt;/b&gt;" style="edgeLabel;resizable=0;html=1;align=left;verticalAlign=bottom;" parent="R4sOLZEa-TKl13n7Rvy1-15" connectable="0" vertex="1">
          <mxGeometry x="-1" relative="1" as="geometry">
            <mxPoint x="5" y="-10" as="offset" />
          </mxGeometry>
        </mxCell>
        <mxCell id="R4sOLZEa-TKl13n7Rvy1-17" value="- &lt;b&gt;student&lt;/b&gt;" style="edgeLabel;resizable=0;html=1;align=right;verticalAlign=bottom;" parent="R4sOLZEa-TKl13n7Rvy1-15" connectable="0" vertex="1">
          <mxGeometry x="1" relative="1" as="geometry">
            <mxPoint x="-8" y="23" as="offset" />
          </mxGeometry>
        </mxCell>
        <mxCell id="R4sOLZEa-TKl13n7Rvy1-18" value="1...*" style="edgeLabel;resizable=0;html=1;align=right;verticalAlign=bottom;" parent="WIyWlLk6GJQsqaUBKTNV-1" connectable="0" vertex="1">
<<<<<<< Updated upstream
          <mxGeometry x="757.9369979578778" y="528.0045205319273" as="geometry">
=======
          <mxGeometry x="706.9369979578778" y="418.9045205319272" as="geometry">
>>>>>>> Stashed changes
            <mxPoint x="11" y="-4" as="offset" />
          </mxGeometry>
        </mxCell>
        <mxCell id="R4sOLZEa-TKl13n7Rvy1-19" value="Module" style="swimlane;fontStyle=1;align=center;verticalAlign=top;childLayout=stackLayout;horizontal=1;startSize=26;horizontalStack=0;resizeParent=1;resizeParentMax=0;resizeLast=0;collapsible=1;marginBottom=0;whiteSpace=wrap;html=1;fillColor=#dae8fc;strokeColor=#6c8ebf;" parent="WIyWlLk6GJQsqaUBKTNV-1" vertex="1">
<<<<<<< Updated upstream
          <mxGeometry x="1117.46" y="843.84" width="160" height="52" as="geometry">
=======
          <mxGeometry x="1034.13" y="676.8400000000001" width="160" height="52" as="geometry">
>>>>>>> Stashed changes
            <mxRectangle x="455" y="661" width="80" height="30" as="alternateBounds" />
          </mxGeometry>
        </mxCell>
        <mxCell id="R4sOLZEa-TKl13n7Rvy1-22" value="" style="endArrow=none;html=1;edgeStyle=orthogonalEdgeStyle;rounded=0;exitX=0.5;exitY=0;exitDx=0;exitDy=0;entryX=0.5;entryY=1;entryDx=0;entryDy=0;" parent="WIyWlLk6GJQsqaUBKTNV-1" source="R4sOLZEa-TKl13n7Rvy1-19" target="x0Ebby3f6C95ohtFIqQS-38" edge="1">
          <mxGeometry relative="1" as="geometry">
<<<<<<< Updated upstream
            <mxPoint x="1062.46" y="703.84" as="sourcePoint" />
            <mxPoint x="1197.46" y="763.84" as="targetPoint" />
=======
            <mxPoint x="979.1300000000001" y="536.84" as="sourcePoint" />
            <mxPoint x="1114.13" y="596.84" as="targetPoint" />
>>>>>>> Stashed changes
          </mxGeometry>
        </mxCell>
        <mxCell id="R4sOLZEa-TKl13n7Rvy1-23" value="- &lt;b&gt;modules&lt;/b&gt;" style="edgeLabel;resizable=0;html=1;align=left;verticalAlign=bottom;" parent="R4sOLZEa-TKl13n7Rvy1-22" connectable="0" vertex="1">
          <mxGeometry x="-1" relative="1" as="geometry">
<<<<<<< Updated upstream
            <mxPoint x="8" y="-6" as="offset" />
          </mxGeometry>
        </mxCell>
        <mxCell id="R4sOLZEa-TKl13n7Rvy1-25" value="1...*" style="edgeLabel;resizable=0;html=1;align=right;verticalAlign=bottom;" parent="WIyWlLk6GJQsqaUBKTNV-1" connectable="0" vertex="1">
          <mxGeometry x="1189.7869979578777" y="838.1645205319273" as="geometry" />
        </mxCell>
        <mxCell id="R4sOLZEa-TKl13n7Rvy1-26" value="- &lt;b&gt;enrollments&lt;/b&gt;" style="edgeLabel;resizable=0;html=1;align=left;verticalAlign=bottom;" parent="WIyWlLk6GJQsqaUBKTNV-1" connectable="0" vertex="1">
          <mxGeometry x="1201" y="772.84" as="geometry" />
        </mxCell>
        <mxCell id="R4sOLZEa-TKl13n7Rvy1-27" value="0...*" style="edgeLabel;resizable=0;html=1;align=right;verticalAlign=bottom;" parent="WIyWlLk6GJQsqaUBKTNV-1" connectable="0" vertex="1">
          <mxGeometry x="1187.5169979578777" y="772.8445205319273" as="geometry" />
        </mxCell>
        <mxCell id="R4sOLZEa-TKl13n7Rvy1-28" value="" style="endArrow=none;html=1;edgeStyle=orthogonalEdgeStyle;rounded=0;exitX=0.5;exitY=0;exitDx=0;exitDy=0;entryX=0.499;entryY=1.003;entryDx=0;entryDy=0;entryPerimeter=0;" parent="WIyWlLk6GJQsqaUBKTNV-1" source="x0Ebby3f6C95ohtFIqQS-18" edge="1">
          <mxGeometry relative="1" as="geometry">
            <mxPoint x="1122.46" y="873.84" as="sourcePoint" />
            <mxPoint x="1197.3" y="895.918" as="targetPoint" />
=======
            <mxPoint x="5" y="-8" as="offset" />
          </mxGeometry>
        </mxCell>
        <mxCell id="R4sOLZEa-TKl13n7Rvy1-25" value="1...*" style="edgeLabel;resizable=0;html=1;align=right;verticalAlign=bottom;" parent="WIyWlLk6GJQsqaUBKTNV-1" connectable="0" vertex="1">
          <mxGeometry x="1104.1269979578778" y="668.8445205319274" as="geometry" />
        </mxCell>
        <mxCell id="R4sOLZEa-TKl13n7Rvy1-26" value="- &lt;b&gt;enrollments&lt;/b&gt;" style="edgeLabel;resizable=0;html=1;align=left;verticalAlign=bottom;" parent="WIyWlLk6GJQsqaUBKTNV-1" connectable="0" vertex="1">
          <mxGeometry x="1117.67" y="616.8400000000001" as="geometry" />
        </mxCell>
        <mxCell id="R4sOLZEa-TKl13n7Rvy1-27" value="0...*" style="edgeLabel;resizable=0;html=1;align=right;verticalAlign=bottom;" parent="WIyWlLk6GJQsqaUBKTNV-1" connectable="0" vertex="1">
          <mxGeometry x="1104.1869979578778" y="616.8445205319274" as="geometry" />
        </mxCell>
        <mxCell id="R4sOLZEa-TKl13n7Rvy1-28" value="" style="endArrow=none;html=1;edgeStyle=orthogonalEdgeStyle;rounded=0;exitX=0.5;exitY=0;exitDx=0;exitDy=0;entryX=0.499;entryY=1.003;entryDx=0;entryDy=0;entryPerimeter=0;" parent="WIyWlLk6GJQsqaUBKTNV-1" source="x0Ebby3f6C95ohtFIqQS-18" edge="1">
          <mxGeometry relative="1" as="geometry">
            <mxPoint x="1039.13" y="706.8400000000001" as="sourcePoint" />
            <mxPoint x="1113.97" y="728.9180000000001" as="targetPoint" />
>>>>>>> Stashed changes
          </mxGeometry>
        </mxCell>
        <mxCell id="R4sOLZEa-TKl13n7Rvy1-29" value="- &lt;b&gt;studyPlan&lt;/b&gt;" style="edgeLabel;resizable=0;html=1;align=left;verticalAlign=bottom;" parent="R4sOLZEa-TKl13n7Rvy1-28" connectable="0" vertex="1">
          <mxGeometry x="-1" relative="1" as="geometry">
            <mxPoint x="5" y="-4" as="offset" />
          </mxGeometry>
        </mxCell>
        <mxCell id="R4sOLZEa-TKl13n7Rvy1-31" value="1" style="edgeLabel;resizable=0;html=1;align=right;verticalAlign=bottom;" parent="WIyWlLk6GJQsqaUBKTNV-1" connectable="0" vertex="1">
<<<<<<< Updated upstream
          <mxGeometry x="1192.4569979578778" y="978.8445205319273" as="geometry" />
        </mxCell>
        <mxCell id="R4sOLZEa-TKl13n7Rvy1-33" value="&lt;div&gt;&lt;i style=&quot;font-weight: normal;&quot;&gt;«Enum»&lt;/i&gt;&lt;/div&gt;&lt;div&gt;&lt;span style=&quot;text-align: left;&quot;&gt;Role&lt;/span&gt;&lt;/div&gt;" style="swimlane;fontStyle=1;align=center;verticalAlign=top;childLayout=stackLayout;horizontal=1;startSize=42;horizontalStack=0;resizeParent=1;resizeParentMax=0;resizeLast=0;collapsible=1;marginBottom=0;whiteSpace=wrap;html=1;fillColor=#bac8d3;strokeColor=#23445d;" parent="WIyWlLk6GJQsqaUBKTNV-1" vertex="1">
          <mxGeometry x="570" y="108.92" width="100" height="172" as="geometry" />
=======
          <mxGeometry x="1109.1269979578778" y="811.8445205319274" as="geometry" />
        </mxCell>
        <mxCell id="R4sOLZEa-TKl13n7Rvy1-33" value="&lt;div&gt;&lt;i style=&quot;font-weight: normal;&quot;&gt;«Enum»&lt;/i&gt;&lt;/div&gt;&lt;div&gt;&lt;span style=&quot;text-align: left;&quot;&gt;Role&lt;/span&gt;&lt;/div&gt;" style="swimlane;fontStyle=1;align=center;verticalAlign=top;childLayout=stackLayout;horizontal=1;startSize=42;horizontalStack=0;resizeParent=1;resizeParentMax=0;resizeLast=0;collapsible=1;marginBottom=0;whiteSpace=wrap;html=1;fillColor=#bac8d3;strokeColor=#23445d;" parent="WIyWlLk6GJQsqaUBKTNV-1" vertex="1">
          <mxGeometry x="600" y="5.960000000000001" width="100" height="172" as="geometry" />
>>>>>>> Stashed changes
        </mxCell>
        <mxCell id="R4sOLZEa-TKl13n7Rvy1-34" value="Secretary" style="text;strokeColor=none;fillColor=none;align=left;verticalAlign=top;spacingLeft=4;spacingRight=4;overflow=hidden;rotatable=0;points=[[0,0.5],[1,0.5]];portConstraint=eastwest;whiteSpace=wrap;html=1;" parent="R4sOLZEa-TKl13n7Rvy1-33" vertex="1">
          <mxGeometry y="42" width="100" height="26" as="geometry" />
        </mxCell>
        <mxCell id="R4sOLZEa-TKl13n7Rvy1-35" value="Teacher" style="text;strokeColor=none;fillColor=none;align=left;verticalAlign=top;spacingLeft=4;spacingRight=4;overflow=hidden;rotatable=0;points=[[0,0.5],[1,0.5]];portConstraint=eastwest;whiteSpace=wrap;html=1;" parent="R4sOLZEa-TKl13n7Rvy1-33" vertex="1">
          <mxGeometry y="68" width="100" height="26" as="geometry" />
        </mxCell>
        <mxCell id="R4sOLZEa-TKl13n7Rvy1-36" value="Student" style="text;strokeColor=none;fillColor=none;align=left;verticalAlign=top;spacingLeft=4;spacingRight=4;overflow=hidden;rotatable=0;points=[[0,0.5],[1,0.5]];portConstraint=eastwest;whiteSpace=wrap;html=1;" parent="R4sOLZEa-TKl13n7Rvy1-33" vertex="1">
          <mxGeometry y="94" width="100" height="26" as="geometry" />
        </mxCell>
        <mxCell id="qj3KO4-LrgshDppNUJZX-19" value="Admin" style="text;strokeColor=none;fillColor=none;align=left;verticalAlign=top;spacingLeft=4;spacingRight=4;overflow=hidden;rotatable=0;points=[[0,0.5],[1,0.5]];portConstraint=eastwest;whiteSpace=wrap;html=1;" parent="R4sOLZEa-TKl13n7Rvy1-33" vertex="1">
          <mxGeometry y="120" width="100" height="26" as="geometry" />
        </mxCell>
        <mxCell id="qj3KO4-LrgshDppNUJZX-20" value="Helpdesk" style="text;strokeColor=none;fillColor=none;align=left;verticalAlign=top;spacingLeft=4;spacingRight=4;overflow=hidden;rotatable=0;points=[[0,0.5],[1,0.5]];portConstraint=eastwest;whiteSpace=wrap;html=1;" parent="R4sOLZEa-TKl13n7Rvy1-33" vertex="1">
          <mxGeometry y="146" width="100" height="26" as="geometry" />
        </mxCell>
        <mxCell id="R4sOLZEa-TKl13n7Rvy1-38" value="Use" style="endArrow=open;endSize=12;dashed=1;html=1;rounded=0;exitX=1;exitY=0.5;exitDx=0;exitDy=0;entryX=0;entryY=0.5;entryDx=0;entryDy=0;" parent="WIyWlLk6GJQsqaUBKTNV-1" source="rPhPrc9EmJT0JEbO7Rp2-30" target="R4sOLZEa-TKl13n7Rvy1-35" edge="1">
          <mxGeometry width="160" relative="1" as="geometry">
<<<<<<< Updated upstream
            <mxPoint x="650" y="293" as="sourcePoint" />
            <mxPoint x="810" y="293" as="targetPoint" />
          </mxGeometry>
        </mxCell>
        <mxCell id="R4sOLZEa-TKl13n7Rvy1-40" value="- &lt;b&gt;enrollment&lt;/b&gt;" style="edgeLabel;resizable=0;html=1;align=right;verticalAlign=bottom;" parent="WIyWlLk6GJQsqaUBKTNV-1" connectable="0" vertex="1">
          <mxGeometry x="1110.5005171201844" y="690.9951263160123" as="geometry" />
        </mxCell>
        <mxCell id="R4sOLZEa-TKl13n7Rvy1-41" value="-&lt;b&gt; registries&lt;/b&gt;" style="edgeLabel;resizable=0;html=1;align=left;verticalAlign=bottom;" parent="WIyWlLk6GJQsqaUBKTNV-1" connectable="0" vertex="1">
          <mxGeometry x="866.0600000000001" y="618.0020000000002" as="geometry" />
        </mxCell>
        <mxCell id="R4sOLZEa-TKl13n7Rvy1-43" style="edgeStyle=orthogonalEdgeStyle;rounded=0;orthogonalLoop=1;jettySize=auto;html=1;exitX=1;exitY=0.5;exitDx=0;exitDy=0;entryX=0;entryY=0.25;entryDx=0;entryDy=0;endArrow=none;endFill=0;" parent="WIyWlLk6GJQsqaUBKTNV-1" source="wbrQK4F61QkgtMWtcAEV-4" target="x0Ebby3f6C95ohtFIqQS-38" edge="1">
          <mxGeometry relative="1" as="geometry" />
        </mxCell>
        <mxCell id="R4sOLZEa-TKl13n7Rvy1-44" value="Building" style="swimlane;fontStyle=1;align=center;verticalAlign=top;childLayout=stackLayout;horizontal=1;startSize=26;horizontalStack=0;resizeParent=1;resizeParentMax=0;resizeLast=0;collapsible=1;marginBottom=0;whiteSpace=wrap;html=1;fillColor=#dae8fc;strokeColor=#6c8ebf;" parent="WIyWlLk6GJQsqaUBKTNV-1" vertex="1">
          <mxGeometry x="701.0000000000002" y="695" width="160" height="130" as="geometry">
=======
            <mxPoint x="650" y="190" as="sourcePoint" />
            <mxPoint x="810" y="190" as="targetPoint" />
          </mxGeometry>
        </mxCell>
        <mxCell id="R4sOLZEa-TKl13n7Rvy1-40" value="- &lt;b&gt;enrollment&lt;/b&gt;" style="edgeLabel;resizable=0;html=1;align=right;verticalAlign=bottom;" parent="WIyWlLk6GJQsqaUBKTNV-1" connectable="0" vertex="1">
          <mxGeometry x="1027.6705171201845" y="510.8351263160123" as="geometry" />
        </mxCell>
        <mxCell id="R4sOLZEa-TKl13n7Rvy1-41" value="-&lt;b&gt; registries&lt;/b&gt;" style="edgeLabel;resizable=0;html=1;align=left;verticalAlign=bottom;" parent="WIyWlLk6GJQsqaUBKTNV-1" connectable="0" vertex="1">
          <mxGeometry x="820" y="511.4420000000002" as="geometry" />
        </mxCell>
        <mxCell id="R4sOLZEa-TKl13n7Rvy1-43" style="edgeStyle=orthogonalEdgeStyle;rounded=0;orthogonalLoop=1;jettySize=auto;html=1;exitX=1;exitY=0.5;exitDx=0;exitDy=0;entryX=0;entryY=0.5;entryDx=0;entryDy=0;endArrow=none;endFill=0;" parent="WIyWlLk6GJQsqaUBKTNV-1" source="h_vmbEvHAPqt6KJx8O-b-0" target="lyx5QjdWIEwCXilWNKK9-18" edge="1">
          <mxGeometry relative="1" as="geometry" />
        </mxCell>
        <mxCell id="R4sOLZEa-TKl13n7Rvy1-44" value="Building" style="swimlane;fontStyle=1;align=center;verticalAlign=top;childLayout=stackLayout;horizontal=1;startSize=26;horizontalStack=0;resizeParent=1;resizeParentMax=0;resizeLast=0;collapsible=1;marginBottom=0;whiteSpace=wrap;html=1;fillColor=#dae8fc;strokeColor=#6c8ebf;" parent="WIyWlLk6GJQsqaUBKTNV-1" vertex="1">
          <mxGeometry x="650.0600000000002" y="598.8400000000001" width="160" height="130" as="geometry">
>>>>>>> Stashed changes
            <mxRectangle x="195" y="661" width="80" height="30" as="alternateBounds" />
          </mxGeometry>
        </mxCell>
        <mxCell id="R4sOLZEa-TKl13n7Rvy1-45" value="- &lt;b&gt;name&lt;/b&gt;: text" style="text;strokeColor=none;fillColor=none;align=left;verticalAlign=top;spacingLeft=4;spacingRight=4;overflow=hidden;rotatable=0;points=[[0,0.5],[1,0.5]];portConstraint=eastwest;whiteSpace=wrap;html=1;" parent="R4sOLZEa-TKl13n7Rvy1-44" vertex="1">
          <mxGeometry y="26" width="160" height="26" as="geometry" />
        </mxCell>
        <mxCell id="R4sOLZEa-TKl13n7Rvy1-46" value="- &lt;b&gt;address&lt;/b&gt;: text" style="text;strokeColor=none;fillColor=none;align=left;verticalAlign=top;spacingLeft=4;spacingRight=4;overflow=hidden;rotatable=0;points=[[0,0.5],[1,0.5]];portConstraint=eastwest;whiteSpace=wrap;html=1;" parent="R4sOLZEa-TKl13n7Rvy1-44" vertex="1">
          <mxGeometry y="52" width="160" height="26" as="geometry" />
        </mxCell>
        <mxCell id="R4sOLZEa-TKl13n7Rvy1-67" value="- &lt;b&gt;phone&lt;/b&gt;: text" style="text;strokeColor=none;fillColor=none;align=left;verticalAlign=top;spacingLeft=4;spacingRight=4;overflow=hidden;rotatable=0;points=[[0,0.5],[1,0.5]];portConstraint=eastwest;whiteSpace=wrap;html=1;" parent="R4sOLZEa-TKl13n7Rvy1-44" vertex="1">
          <mxGeometry y="78" width="160" height="26" as="geometry" />
        </mxCell>
        <mxCell id="R4sOLZEa-TKl13n7Rvy1-68" value="- &lt;b&gt;email&lt;/b&gt;: text" style="text;strokeColor=none;fillColor=none;align=left;verticalAlign=top;spacingLeft=4;spacingRight=4;overflow=hidden;rotatable=0;points=[[0,0.5],[1,0.5]];portConstraint=eastwest;whiteSpace=wrap;html=1;" parent="R4sOLZEa-TKl13n7Rvy1-44" vertex="1">
          <mxGeometry y="104" width="160" height="26" as="geometry" />
        </mxCell>
        <mxCell id="R4sOLZEa-TKl13n7Rvy1-51" style="edgeStyle=orthogonalEdgeStyle;rounded=0;orthogonalLoop=1;jettySize=auto;html=1;exitX=0.5;exitY=0;exitDx=0;exitDy=0;entryX=0.502;entryY=1.005;entryDx=0;entryDy=0;entryPerimeter=0;endArrow=none;endFill=0;" parent="WIyWlLk6GJQsqaUBKTNV-1" source="rPhPrc9EmJT0JEbO7Rp2-18" target="lyx5QjdWIEwCXilWNKK9-53" edge="1">
          <mxGeometry relative="1" as="geometry" />
        </mxCell>
        <mxCell id="R4sOLZEa-TKl13n7Rvy1-52" value="- &lt;b&gt;slot&lt;/b&gt;" style="edgeLabel;resizable=0;html=1;align=right;verticalAlign=bottom;" parent="WIyWlLk6GJQsqaUBKTNV-1" connectable="0" vertex="1">
<<<<<<< Updated upstream
          <mxGeometry x="1187.5199513858247" y="1131.8906989011548" as="geometry" />
=======
          <mxGeometry x="1104.1899513858248" y="964.890698901155" as="geometry" />
>>>>>>> Stashed changes
        </mxCell>
        <mxCell id="R4sOLZEa-TKl13n7Rvy1-53" style="edgeStyle=orthogonalEdgeStyle;rounded=0;orthogonalLoop=1;jettySize=auto;html=1;exitX=1;exitY=0.5;exitDx=0;exitDy=0;entryX=0;entryY=0.5;entryDx=0;entryDy=0;endArrow=none;endFill=0;" parent="WIyWlLk6GJQsqaUBKTNV-1" source="lyx5QjdWIEwCXilWNKK9-10" target="lyx5QjdWIEwCXilWNKK9-16" edge="1">
          <mxGeometry relative="1" as="geometry" />
        </mxCell>
        <mxCell id="R4sOLZEa-TKl13n7Rvy1-55" value="- tass" style="text;align=center;fontStyle=1;verticalAlign=middle;spacingLeft=3;spacingRight=3;strokeColor=none;rotatable=0;points=[[0,0.5],[1,0.5]];portConstraint=eastwest;html=1;" parent="WIyWlLk6GJQsqaUBKTNV-1" vertex="1">
<<<<<<< Updated upstream
          <mxGeometry x="1633.68" y="911.4599999999998" width="40" height="26" as="geometry" />
        </mxCell>
        <mxCell id="R4sOLZEa-TKl13n7Rvy1-57" value="" style="endArrow=none;html=1;endSize=12;startArrow=diamondThin;startSize=14;startFill=0;edgeStyle=orthogonalEdgeStyle;align=left;verticalAlign=bottom;rounded=0;entryX=0;entryY=0.5;entryDx=0;entryDy=0;exitX=1;exitY=0.5;exitDx=0;exitDy=0;endFill=0;" parent="WIyWlLk6GJQsqaUBKTNV-1" source="R4sOLZEa-TKl13n7Rvy1-19" target="lyx5QjdWIEwCXilWNKK9-10" edge="1">
          <mxGeometry x="-1" y="3" relative="1" as="geometry">
            <mxPoint x="1301" y="1011.8400000000001" as="sourcePoint" />
            <mxPoint x="1301" y="831.84" as="targetPoint" />
          </mxGeometry>
        </mxCell>
        <mxCell id="R4sOLZEa-TKl13n7Rvy1-58" value="" style="endArrow=none;html=1;endSize=12;startArrow=diamondThin;startSize=14;startFill=0;edgeStyle=orthogonalEdgeStyle;align=left;verticalAlign=bottom;rounded=0;exitX=1;exitY=0.5;exitDx=0;exitDy=0;entryX=-0.002;entryY=0.004;entryDx=0;entryDy=0;entryPerimeter=0;endFill=0;" parent="WIyWlLk6GJQsqaUBKTNV-1" edge="1">
          <mxGeometry x="-1" y="3" relative="1" as="geometry">
            <mxPoint x="1278" y="1020.8200000000002" as="sourcePoint" />
            <mxPoint x="1399.9999999999998" y="1085.924" as="targetPoint" />
            <Array as="points">
              <mxPoint x="1350.32" y="1021.2" />
              <mxPoint x="1350.32" y="1086.2" />
            </Array>
          </mxGeometry>
        </mxCell>
        <mxCell id="R4sOLZEa-TKl13n7Rvy1-60" value="" style="endArrow=none;html=1;endSize=12;startArrow=diamondThin;startSize=14;startFill=0;edgeStyle=orthogonalEdgeStyle;align=left;verticalAlign=bottom;rounded=0;entryX=1;entryY=0.5;entryDx=0;entryDy=0;exitX=0.25;exitY=1;exitDx=0;exitDy=0;endFill=0;" parent="WIyWlLk6GJQsqaUBKTNV-1" source="x0Ebby3f6C95ohtFIqQS-18" target="x0Ebby3f6C95ohtFIqQS-56" edge="1">
          <mxGeometry x="-1" y="3" relative="1" as="geometry">
            <mxPoint x="446" y="954.84" as="sourcePoint" />
            <mxPoint x="606" y="954.84" as="targetPoint" />
          </mxGeometry>
        </mxCell>
        <mxCell id="R4sOLZEa-TKl13n7Rvy1-61" style="edgeStyle=orthogonalEdgeStyle;rounded=0;orthogonalLoop=1;jettySize=auto;html=1;exitX=0.5;exitY=0;exitDx=0;exitDy=0;endArrow=none;endFill=0;entryX=0.499;entryY=0.996;entryDx=0;entryDy=0;entryPerimeter=0;" parent="WIyWlLk6GJQsqaUBKTNV-1" source="R4sOLZEa-TKl13n7Rvy1-44" target="h_vmbEvHAPqt6KJx8O-b-0" edge="1">
          <mxGeometry relative="1" as="geometry">
            <mxPoint x="781" y="633" as="targetPoint" />
          </mxGeometry>
        </mxCell>
        <mxCell id="R4sOLZEa-TKl13n7Rvy1-62" value="- &lt;b&gt;building&lt;/b&gt;" style="edgeLabel;resizable=0;html=1;align=right;verticalAlign=bottom;" parent="WIyWlLk6GJQsqaUBKTNV-1" connectable="0" vertex="1">
          <mxGeometry x="839.4005171201844" y="691.9951263160123" as="geometry" />
        </mxCell>
        <mxCell id="R4sOLZEa-TKl13n7Rvy1-63" value="1" style="edgeLabel;resizable=0;html=1;align=right;verticalAlign=bottom;" parent="WIyWlLk6GJQsqaUBKTNV-1" connectable="0" vertex="1">
          <mxGeometry x="771.9969979578777" y="691.0045205319273" as="geometry" />
        </mxCell>
        <mxCell id="R4sOLZEa-TKl13n7Rvy1-64" style="edgeStyle=orthogonalEdgeStyle;rounded=0;orthogonalLoop=1;jettySize=auto;html=1;exitX=0;exitY=0.5;exitDx=0;exitDy=0;endArrow=none;endFill=0;entryX=0.494;entryY=1.005;entryDx=0;entryDy=0;entryPerimeter=0;" parent="WIyWlLk6GJQsqaUBKTNV-1" source="lyx5QjdWIEwCXilWNKK9-53" target="rPhPrc9EmJT0JEbO7Rp2-34" edge="1">
          <mxGeometry relative="1" as="geometry">
            <mxPoint x="460" y="874" as="targetPoint" />
            <Array as="points">
              <mxPoint x="400" y="1023" />
              <mxPoint x="400" y="771" />
=======
          <mxGeometry x="1611.5100000000002" y="628.8399999999999" width="40" height="26" as="geometry" />
        </mxCell>
        <mxCell id="R4sOLZEa-TKl13n7Rvy1-58" value="" style="endArrow=none;html=1;endSize=12;startArrow=diamondThin;startSize=14;startFill=0;edgeStyle=orthogonalEdgeStyle;align=left;verticalAlign=bottom;rounded=0;exitX=1;exitY=0.5;exitDx=0;exitDy=0;entryX=-0.002;entryY=0.004;entryDx=0;entryDy=0;entryPerimeter=0;endFill=0;" parent="WIyWlLk6GJQsqaUBKTNV-1" edge="1">
          <mxGeometry x="-1" y="3" relative="1" as="geometry">
            <mxPoint x="1194.67" y="853.8200000000004" as="sourcePoint" />
            <mxPoint x="1316.6699999999998" y="918.9240000000002" as="targetPoint" />
            <Array as="points">
              <mxPoint x="1266.99" y="854.2000000000002" />
              <mxPoint x="1266.99" y="919.2000000000002" />
            </Array>
          </mxGeometry>
        </mxCell>
        <mxCell id="R4sOLZEa-TKl13n7Rvy1-61" style="edgeStyle=orthogonalEdgeStyle;rounded=0;orthogonalLoop=1;jettySize=auto;html=1;exitX=0.5;exitY=0;exitDx=0;exitDy=0;endArrow=none;endFill=0;entryX=0.499;entryY=0.996;entryDx=0;entryDy=0;entryPerimeter=0;" parent="WIyWlLk6GJQsqaUBKTNV-1" source="R4sOLZEa-TKl13n7Rvy1-44" target="h_vmbEvHAPqt6KJx8O-b-0" edge="1">
          <mxGeometry relative="1" as="geometry">
            <mxPoint x="730" y="523.9000000000001" as="targetPoint" />
          </mxGeometry>
        </mxCell>
        <mxCell id="R4sOLZEa-TKl13n7Rvy1-62" value="- &lt;b&gt;building&lt;/b&gt;" style="edgeLabel;resizable=0;html=1;align=right;verticalAlign=bottom;" parent="WIyWlLk6GJQsqaUBKTNV-1" connectable="0" vertex="1">
          <mxGeometry x="788.4605171201844" y="595.8351263160124" as="geometry" />
        </mxCell>
        <mxCell id="R4sOLZEa-TKl13n7Rvy1-63" value="1" style="edgeLabel;resizable=0;html=1;align=right;verticalAlign=bottom;" parent="WIyWlLk6GJQsqaUBKTNV-1" connectable="0" vertex="1">
          <mxGeometry x="721.0569979578777" y="594.8445205319274" as="geometry" />
        </mxCell>
        <mxCell id="R4sOLZEa-TKl13n7Rvy1-64" style="edgeStyle=orthogonalEdgeStyle;rounded=0;orthogonalLoop=1;jettySize=auto;html=1;exitX=0;exitY=0.5;exitDx=0;exitDy=0;endArrow=none;endFill=0;entryX=0.494;entryY=1.005;entryDx=0;entryDy=0;entryPerimeter=0;" parent="WIyWlLk6GJQsqaUBKTNV-1" source="lyx5QjdWIEwCXilWNKK9-53" target="rPhPrc9EmJT0JEbO7Rp2-34" edge="1">
          <mxGeometry relative="1" as="geometry">
            <mxPoint x="460" y="771" as="targetPoint" />
            <Array as="points">
              <mxPoint x="400" y="856" />
>>>>>>> Stashed changes
            </Array>
          </mxGeometry>
        </mxCell>
        <mxCell id="R4sOLZEa-TKl13n7Rvy1-65" value="- &lt;b&gt;teacher&lt;/b&gt;" style="edgeLabel;resizable=0;html=1;align=right;verticalAlign=bottom;" parent="WIyWlLk6GJQsqaUBKTNV-1" connectable="0" vertex="1">
<<<<<<< Updated upstream
          <mxGeometry x="450.00051712018444" y="801.4351263160122" as="geometry" />
        </mxCell>
        <mxCell id="R4sOLZEa-TKl13n7Rvy1-66" value="- &lt;b&gt;classes&lt;/b&gt;" style="text;strokeColor=none;fillColor=none;align=left;verticalAlign=top;spacingLeft=4;spacingRight=4;overflow=hidden;rotatable=0;points=[[0,0.5],[1,0.5]];portConstraint=eastwest;whiteSpace=wrap;html=1;" parent="WIyWlLk6GJQsqaUBKTNV-1" vertex="1">
          <mxGeometry x="1051" y="1022.46" width="66.46" height="26" as="geometry" />
        </mxCell>
        <mxCell id="R4sOLZEa-TKl13n7Rvy1-72" value="Use" style="endArrow=open;endSize=12;dashed=1;html=1;rounded=0;exitX=0;exitY=0.5;exitDx=0;exitDy=0;entryX=1;entryY=0.5;entryDx=0;entryDy=0;" parent="WIyWlLk6GJQsqaUBKTNV-1" source="Na8gEu5Ey_Q5j3jmP6cr-6" target="lyx5QjdWIEwCXilWNKK9-27" edge="1">
          <mxGeometry width="160" relative="1" as="geometry">
            <mxPoint x="1277.39" y="602.05" as="sourcePoint" />
            <mxPoint x="1437.39" y="602.05" as="targetPoint" />
          </mxGeometry>
        </mxCell>
        <mxCell id="R4sOLZEa-TKl13n7Rvy1-73" value="EnrollmentFee" style="swimlane;fontStyle=1;align=center;verticalAlign=top;childLayout=stackLayout;horizontal=1;startSize=26;horizontalStack=0;resizeParent=1;resizeParentMax=0;resizeLast=0;collapsible=1;marginBottom=0;whiteSpace=wrap;html=1;fillColor=#dae8fc;strokeColor=#6c8ebf;" parent="WIyWlLk6GJQsqaUBKTNV-1" vertex="1">
          <mxGeometry x="1234.54" y="523.0000000000001" width="160" height="52" as="geometry" />
=======
          <mxGeometry x="450.00051712018444" y="691.0051263160123" as="geometry" />
        </mxCell>
        <mxCell id="R4sOLZEa-TKl13n7Rvy1-66" value="- &lt;b&gt;classes&lt;/b&gt;" style="text;strokeColor=none;fillColor=none;align=left;verticalAlign=top;spacingLeft=4;spacingRight=4;overflow=hidden;rotatable=0;points=[[0,0.5],[1,0.5]];portConstraint=eastwest;whiteSpace=wrap;html=1;" parent="WIyWlLk6GJQsqaUBKTNV-1" vertex="1">
          <mxGeometry x="967.6700000000001" y="858.4600000000002" width="66.46" height="26" as="geometry" />
        </mxCell>
        <mxCell id="R4sOLZEa-TKl13n7Rvy1-70" value="- &lt;b&gt;course&lt;/b&gt;" style="edgeLabel;resizable=0;html=1;align=left;verticalAlign=bottom;" parent="WIyWlLk6GJQsqaUBKTNV-1" connectable="0" vertex="1">
          <mxGeometry x="1161.07" y="430" as="geometry" />
        </mxCell>
        <mxCell id="R4sOLZEa-TKl13n7Rvy1-71" value="1" style="edgeLabel;resizable=0;html=1;align=right;verticalAlign=bottom;" parent="WIyWlLk6GJQsqaUBKTNV-1" connectable="0" vertex="1">
          <mxGeometry x="1147.5869979578777" y="431.00452053192726" as="geometry" />
        </mxCell>
        <mxCell id="R4sOLZEa-TKl13n7Rvy1-73" value="LimitedFee" style="swimlane;fontStyle=1;align=center;verticalAlign=top;childLayout=stackLayout;horizontal=1;startSize=26;horizontalStack=0;resizeParent=1;resizeParentMax=0;resizeLast=0;collapsible=1;marginBottom=0;whiteSpace=wrap;html=1;fillColor=#dae8fc;strokeColor=#6c8ebf;" parent="WIyWlLk6GJQsqaUBKTNV-1" vertex="1">
          <mxGeometry x="857.6700000000001" y="242.00000000000006" width="160" height="78" as="geometry" />
>>>>>>> Stashed changes
        </mxCell>
        <mxCell id="R4sOLZEa-TKl13n7Rvy1-74" value="- &lt;b&gt;role&lt;/b&gt;: FeeRole" style="text;strokeColor=none;fillColor=none;align=left;verticalAlign=top;spacingLeft=4;spacingRight=4;overflow=hidden;rotatable=0;points=[[0,0.5],[1,0.5]];portConstraint=eastwest;whiteSpace=wrap;html=1;" parent="R4sOLZEa-TKl13n7Rvy1-73" vertex="1">
          <mxGeometry y="26" width="160" height="26" as="geometry" />
        </mxCell>
<<<<<<< Updated upstream
        <mxCell id="R4sOLZEa-TKl13n7Rvy1-77" value="Fee" style="swimlane;fontStyle=1;align=center;verticalAlign=top;childLayout=stackLayout;horizontal=1;startSize=26;horizontalStack=0;resizeParent=1;resizeParentMax=0;resizeLast=0;collapsible=1;marginBottom=0;whiteSpace=wrap;html=1;fillColor=#ffe6cc;strokeColor=#d79b00;" parent="WIyWlLk6GJQsqaUBKTNV-1" vertex="1">
          <mxGeometry x="1234.54" y="343.0500000000001" width="160" height="104" as="geometry" />
=======
        <mxCell id="93AXq8a3GErI8auWy1jn-1" value="- &lt;b&gt;limitDate&lt;/b&gt;: date" style="text;strokeColor=none;fillColor=none;align=left;verticalAlign=top;spacingLeft=4;spacingRight=4;overflow=hidden;rotatable=0;points=[[0,0.5],[1,0.5]];portConstraint=eastwest;whiteSpace=wrap;html=1;" parent="R4sOLZEa-TKl13n7Rvy1-73" vertex="1">
          <mxGeometry y="52" width="160" height="26" as="geometry" />
        </mxCell>
        <mxCell id="R4sOLZEa-TKl13n7Rvy1-77" value="Fee" style="swimlane;fontStyle=1;align=center;verticalAlign=top;childLayout=stackLayout;horizontal=1;startSize=26;horizontalStack=0;resizeParent=1;resizeParentMax=0;resizeLast=0;collapsible=1;marginBottom=0;whiteSpace=wrap;html=1;fillColor=#ffe6cc;strokeColor=#d79b00;" parent="WIyWlLk6GJQsqaUBKTNV-1" vertex="1">
          <mxGeometry x="857.0099999999999" y="34.000000000000114" width="160" height="130" as="geometry" />
>>>>>>> Stashed changes
        </mxCell>
        <mxCell id="R4sOLZEa-TKl13n7Rvy1-78" value="&lt;b&gt;# description&lt;/b&gt;: text" style="text;strokeColor=none;fillColor=none;align=left;verticalAlign=top;spacingLeft=4;spacingRight=4;overflow=hidden;rotatable=0;points=[[0,0.5],[1,0.5]];portConstraint=eastwest;whiteSpace=wrap;html=1;" parent="R4sOLZEa-TKl13n7Rvy1-77" vertex="1">
          <mxGeometry y="26" width="160" height="26" as="geometry" />
        </mxCell>
        <mxCell id="R4sOLZEa-TKl13n7Rvy1-79" value="&lt;b&gt;# price&lt;/b&gt;: decimal" style="text;strokeColor=none;fillColor=none;align=left;verticalAlign=top;spacingLeft=4;spacingRight=4;overflow=hidden;rotatable=0;points=[[0,0.5],[1,0.5]];portConstraint=eastwest;whiteSpace=wrap;html=1;" parent="R4sOLZEa-TKl13n7Rvy1-77" vertex="1">
          <mxGeometry y="52" width="160" height="26" as="geometry" />
        </mxCell>
<<<<<<< Updated upstream
        <mxCell id="K_Cy5kONvJf8-oDEyWMT-8" value="&lt;b&gt;#&lt;/b&gt;&amp;nbsp;&lt;b&gt;limitDate&lt;/b&gt;: date" style="text;strokeColor=none;fillColor=none;align=left;verticalAlign=top;spacingLeft=4;spacingRight=4;overflow=hidden;rotatable=0;points=[[0,0.5],[1,0.5]];portConstraint=eastwest;whiteSpace=wrap;html=1;" parent="R4sOLZEa-TKl13n7Rvy1-77" vertex="1">
          <mxGeometry y="78" width="160" height="26" as="geometry" />
        </mxCell>
        <mxCell id="R4sOLZEa-TKl13n7Rvy1-81" value="Invoice" style="swimlane;fontStyle=1;align=center;verticalAlign=top;childLayout=stackLayout;horizontal=1;startSize=26;horizontalStack=0;resizeParent=1;resizeParentMax=0;resizeLast=0;collapsible=1;marginBottom=0;whiteSpace=wrap;html=1;fillColor=#dae8fc;strokeColor=#6c8ebf;" parent="WIyWlLk6GJQsqaUBKTNV-1" vertex="1">
          <mxGeometry x="995" y="104.00000000000013" width="160" height="156" as="geometry" />
=======
        <mxCell id="r0sBvm1U4i-7NRLblu73-8" value="&lt;b&gt;# payed&lt;/b&gt;: boolean" style="text;strokeColor=none;fillColor=none;align=left;verticalAlign=top;spacingLeft=4;spacingRight=4;overflow=hidden;rotatable=0;points=[[0,0.5],[1,0.5]];portConstraint=eastwest;whiteSpace=wrap;html=1;" parent="R4sOLZEa-TKl13n7Rvy1-77" vertex="1">
          <mxGeometry y="78" width="160" height="26" as="geometry" />
        </mxCell>
        <mxCell id="ZZszPudMttv8xMkQPxiv-20" value="&lt;b&gt;# student&lt;/b&gt;: Student" style="text;strokeColor=none;fillColor=none;align=left;verticalAlign=top;spacingLeft=4;spacingRight=4;overflow=hidden;rotatable=0;points=[[0,0.5],[1,0.5]];portConstraint=eastwest;whiteSpace=wrap;html=1;" vertex="1" parent="R4sOLZEa-TKl13n7Rvy1-77">
          <mxGeometry y="104" width="160" height="26" as="geometry" />
        </mxCell>
        <mxCell id="R4sOLZEa-TKl13n7Rvy1-81" value="Invoice" style="swimlane;fontStyle=1;align=center;verticalAlign=top;childLayout=stackLayout;horizontal=1;startSize=26;horizontalStack=0;resizeParent=1;resizeParentMax=0;resizeLast=0;collapsible=1;marginBottom=0;whiteSpace=wrap;html=1;fillColor=#dae8fc;strokeColor=#6c8ebf;" parent="WIyWlLk6GJQsqaUBKTNV-1" vertex="1">
          <mxGeometry x="1151.6699999999998" y="34.000000000000114" width="160" height="104" as="geometry" />
>>>>>>> Stashed changes
        </mxCell>
        <mxCell id="R4sOLZEa-TKl13n7Rvy1-82" value="- &lt;b&gt;date&lt;/b&gt;: date" style="text;strokeColor=none;fillColor=none;align=left;verticalAlign=top;spacingLeft=4;spacingRight=4;overflow=hidden;rotatable=0;points=[[0,0.5],[1,0.5]];portConstraint=eastwest;whiteSpace=wrap;html=1;" parent="R4sOLZEa-TKl13n7Rvy1-81" vertex="1">
          <mxGeometry y="26" width="160" height="26" as="geometry" />
        </mxCell>
        <mxCell id="R4sOLZEa-TKl13n7Rvy1-83" value="- &lt;b&gt;reference&lt;/b&gt;: text" style="text;strokeColor=none;fillColor=none;align=left;verticalAlign=top;spacingLeft=4;spacingRight=4;overflow=hidden;rotatable=0;points=[[0,0.5],[1,0.5]];portConstraint=eastwest;whiteSpace=wrap;html=1;" parent="R4sOLZEa-TKl13n7Rvy1-81" vertex="1">
          <mxGeometry y="52" width="160" height="26" as="geometry" />
        </mxCell>
        <mxCell id="R4sOLZEa-TKl13n7Rvy1-84" value="- &lt;b&gt;value&lt;/b&gt;: decimal" style="text;strokeColor=none;fillColor=none;align=left;verticalAlign=top;spacingLeft=4;spacingRight=4;overflow=hidden;rotatable=0;points=[[0,0.5],[1,0.5]];portConstraint=eastwest;whiteSpace=wrap;html=1;" parent="R4sOLZEa-TKl13n7Rvy1-81" vertex="1">
          <mxGeometry y="78" width="160" height="26" as="geometry" />
        </mxCell>
<<<<<<< Updated upstream
        <mxCell id="3Cu-BshAzjE-B5WwaIO1-0" value="- &lt;b&gt;method&lt;/b&gt;: text" style="text;strokeColor=none;fillColor=none;align=left;verticalAlign=top;spacingLeft=4;spacingRight=4;overflow=hidden;rotatable=0;points=[[0,0.5],[1,0.5]];portConstraint=eastwest;whiteSpace=wrap;html=1;" parent="R4sOLZEa-TKl13n7Rvy1-81" vertex="1">
          <mxGeometry y="104" width="160" height="26" as="geometry" />
        </mxCell>
        <mxCell id="vqzUbXH-pOmgLkUmb4zZ-11" value="- &lt;b&gt;employee&lt;/b&gt;: User" style="text;strokeColor=none;fillColor=none;align=left;verticalAlign=top;spacingLeft=4;spacingRight=4;overflow=hidden;rotatable=0;points=[[0,0.5],[1,0.5]];portConstraint=eastwest;whiteSpace=wrap;html=1;" parent="R4sOLZEa-TKl13n7Rvy1-81" vertex="1">
          <mxGeometry y="130" width="160" height="26" as="geometry" />
        </mxCell>
        <mxCell id="R4sOLZEa-TKl13n7Rvy1-88" value="Extends" style="endArrow=block;endSize=16;endFill=0;html=1;rounded=0;entryX=0.5;entryY=1;entryDx=0;entryDy=0;exitX=0.5;exitY=0;exitDx=0;exitDy=0;" parent="WIyWlLk6GJQsqaUBKTNV-1" source="R4sOLZEa-TKl13n7Rvy1-73" target="R4sOLZEa-TKl13n7Rvy1-77" edge="1">
          <mxGeometry width="160" relative="1" as="geometry">
            <mxPoint x="1191.73" y="231.95" as="sourcePoint" />
            <mxPoint x="1171.73" y="221.95" as="targetPoint" />
          </mxGeometry>
        </mxCell>
        <mxCell id="R4sOLZEa-TKl13n7Rvy1-107" value="Many-To-Many:&amp;nbsp;&lt;div&gt;&quot;enrollment_module&quot;&lt;/div&gt;" style="text;align=center;fontStyle=1;verticalAlign=middle;spacingLeft=3;spacingRight=3;rotatable=0;points=[[0,0.5],[1,0.5]];portConstraint=eastwest;html=1;fontColor=#0008ff;fontSize=16;textShadow=1;" parent="WIyWlLk6GJQsqaUBKTNV-1" vertex="1">
          <mxGeometry x="1270" y="775.4300000000001" width="172.54" height="41.16" as="geometry" />
        </mxCell>
        <mxCell id="wbrQK4F61QkgtMWtcAEV-0" value="&lt;div&gt;&lt;i style=&quot;font-weight: normal;&quot;&gt;«Enum»&lt;/i&gt;&lt;/div&gt;&lt;div style=&quot;&quot;&gt;Status&lt;/div&gt;" style="swimlane;fontStyle=1;align=center;verticalAlign=top;childLayout=stackLayout;horizontal=1;startSize=42;horizontalStack=0;resizeParent=1;resizeParentMax=0;resizeLast=0;collapsible=1;marginBottom=0;whiteSpace=wrap;html=1;fillColor=#bac8d3;strokeColor=#23445d;" parent="WIyWlLk6GJQsqaUBKTNV-1" vertex="1">
          <mxGeometry x="485" y="543" width="100" height="120" as="geometry" />
=======
        <mxCell id="R4sOLZEa-TKl13n7Rvy1-88" value="Extends" style="endArrow=block;endSize=16;endFill=0;html=1;rounded=0;entryX=0.5;entryY=1;entryDx=0;entryDy=0;exitX=0.5;exitY=0;exitDx=0;exitDy=0;" parent="WIyWlLk6GJQsqaUBKTNV-1" source="R4sOLZEa-TKl13n7Rvy1-73" target="R4sOLZEa-TKl13n7Rvy1-77" edge="1">
          <mxGeometry width="160" relative="1" as="geometry">
            <mxPoint x="867.3299999999999" y="134.04999999999998" as="sourcePoint" />
            <mxPoint x="847.3299999999999" y="124.04999999999998" as="targetPoint" />
          </mxGeometry>
        </mxCell>
        <mxCell id="R4sOLZEa-TKl13n7Rvy1-92" style="edgeStyle=orthogonalEdgeStyle;rounded=0;orthogonalLoop=1;jettySize=auto;html=1;exitX=1;exitY=0.5;exitDx=0;exitDy=0;entryX=0;entryY=0.5;entryDx=0;entryDy=0;endArrow=none;endFill=0;" parent="WIyWlLk6GJQsqaUBKTNV-1" source="R4sOLZEa-TKl13n7Rvy1-78" target="R4sOLZEa-TKl13n7Rvy1-82" edge="1">
          <mxGeometry relative="1" as="geometry" />
        </mxCell>
        <mxCell id="R4sOLZEa-TKl13n7Rvy1-93" value="1...*" style="edgeLabel;resizable=0;html=1;align=right;verticalAlign=bottom;" parent="WIyWlLk6GJQsqaUBKTNV-1" connectable="0" vertex="1">
          <mxGeometry x="1139.1869979578776" y="70.67452053192716" as="geometry" />
        </mxCell>
        <mxCell id="R4sOLZEa-TKl13n7Rvy1-94" value="&lt;span style=&quot;font-weight: normal;&quot;&gt;-&lt;/span&gt; invoices" style="text;align=center;fontStyle=1;verticalAlign=middle;spacingLeft=3;spacingRight=3;strokeColor=none;rotatable=0;points=[[0,0.5],[1,0.5]];portConstraint=eastwest;html=1;" parent="WIyWlLk6GJQsqaUBKTNV-1" vertex="1">
          <mxGeometry x="1091.1899999999998" y="71.33999999999997" width="58" height="26" as="geometry" />
        </mxCell>
        <mxCell id="R4sOLZEa-TKl13n7Rvy1-95" value="1" style="edgeLabel;resizable=0;html=1;align=right;verticalAlign=bottom;" parent="WIyWlLk6GJQsqaUBKTNV-1" connectable="0" vertex="1">
          <mxGeometry x="1034.1869979578776" y="94.96452053192712" as="geometry" />
        </mxCell>
        <mxCell id="R4sOLZEa-TKl13n7Rvy1-96" value="&lt;span style=&quot;font-weight: normal;&quot;&gt;-&lt;/span&gt; fee" style="text;align=center;fontStyle=1;verticalAlign=middle;spacingLeft=3;spacingRight=3;strokeColor=none;rotatable=0;points=[[0,0.5],[1,0.5]];portConstraint=eastwest;html=1;" parent="WIyWlLk6GJQsqaUBKTNV-1" vertex="1">
          <mxGeometry x="1020.1899999999998" y="46.669999999999995" width="30" height="26" as="geometry" />
        </mxCell>
        <mxCell id="R4sOLZEa-TKl13n7Rvy1-107" value="Many-To-Many: &quot;enrollment_module&quot;" style="text;align=center;fontStyle=1;verticalAlign=middle;spacingLeft=3;spacingRight=3;rotatable=0;points=[[0,0.5],[1,0.5]];portConstraint=eastwest;html=1;fontColor=#0008ff;fontSize=15;textShadow=1;whiteSpace=wrap;" parent="WIyWlLk6GJQsqaUBKTNV-1" vertex="1">
          <mxGeometry x="892.73" y="592.84" width="174.54" height="62" as="geometry" />
        </mxCell>
        <mxCell id="wbrQK4F61QkgtMWtcAEV-0" value="&lt;div&gt;&lt;i style=&quot;font-weight: normal;&quot;&gt;«Enum»&lt;/i&gt;&lt;/div&gt;&lt;div style=&quot;&quot;&gt;Status&lt;/div&gt;" style="swimlane;fontStyle=1;align=center;verticalAlign=top;childLayout=stackLayout;horizontal=1;startSize=42;horizontalStack=0;resizeParent=1;resizeParentMax=0;resizeLast=0;collapsible=1;marginBottom=0;whiteSpace=wrap;html=1;fillColor=#bac8d3;strokeColor=#23445d;" parent="WIyWlLk6GJQsqaUBKTNV-1" vertex="1">
          <mxGeometry x="485" y="433" width="100" height="120" as="geometry" />
>>>>>>> Stashed changes
        </mxCell>
        <mxCell id="wbrQK4F61QkgtMWtcAEV-1" value="Active" style="text;strokeColor=none;fillColor=none;align=left;verticalAlign=top;spacingLeft=4;spacingRight=4;overflow=hidden;rotatable=0;points=[[0,0.5],[1,0.5]];portConstraint=eastwest;whiteSpace=wrap;html=1;" parent="wbrQK4F61QkgtMWtcAEV-0" vertex="1">
          <mxGeometry y="42" width="100" height="26" as="geometry" />
        </mxCell>
        <mxCell id="wbrQK4F61QkgtMWtcAEV-2" value="Finished" style="text;strokeColor=none;fillColor=none;align=left;verticalAlign=top;spacingLeft=4;spacingRight=4;overflow=hidden;rotatable=0;points=[[0,0.5],[1,0.5]];portConstraint=eastwest;whiteSpace=wrap;html=1;" parent="wbrQK4F61QkgtMWtcAEV-0" vertex="1">
          <mxGeometry y="68" width="100" height="26" as="geometry" />
        </mxCell>
        <mxCell id="wbrQK4F61QkgtMWtcAEV-3" value="Inactive" style="text;strokeColor=none;fillColor=none;align=left;verticalAlign=top;spacingLeft=4;spacingRight=4;overflow=hidden;rotatable=0;points=[[0,0.5],[1,0.5]];portConstraint=eastwest;whiteSpace=wrap;html=1;" parent="wbrQK4F61QkgtMWtcAEV-0" vertex="1">
          <mxGeometry y="94" width="100" height="26" as="geometry" />
        </mxCell>
        <mxCell id="wbrQK4F61QkgtMWtcAEV-5" value="Use" style="endArrow=open;endSize=12;dashed=1;html=1;rounded=0;exitX=0;exitY=0.5;exitDx=0;exitDy=0;entryX=1;entryY=0.25;entryDx=0;entryDy=0;" parent="WIyWlLk6GJQsqaUBKTNV-1" source="R4sOLZEa-TKl13n7Rvy1-5" target="wbrQK4F61QkgtMWtcAEV-0" edge="1">
          <mxGeometry width="160" relative="1" as="geometry">
<<<<<<< Updated upstream
            <mxPoint x="656" y="563" as="sourcePoint" />
            <mxPoint x="816" y="563" as="targetPoint" />
          </mxGeometry>
        </mxCell>
        <mxCell id="r0sBvm1U4i-7NRLblu73-4" value="&lt;div&gt;&lt;i style=&quot;font-weight: normal;&quot;&gt;«Enum»&lt;/i&gt;&lt;/div&gt;&lt;div&gt;&lt;span style=&quot;text-align: left;&quot;&gt;FeeRole&lt;/span&gt;&lt;/div&gt;" style="swimlane;fontStyle=1;align=center;verticalAlign=top;childLayout=stackLayout;horizontal=1;startSize=42;horizontalStack=0;resizeParent=1;resizeParentMax=0;resizeLast=0;collapsible=1;marginBottom=0;whiteSpace=wrap;html=1;fillColor=#bac8d3;strokeColor=#23445d;" parent="WIyWlLk6GJQsqaUBKTNV-1" vertex="1">
          <mxGeometry x="1465" y="472" width="100" height="146" as="geometry" />
=======
            <mxPoint x="656" y="460" as="sourcePoint" />
            <mxPoint x="816" y="460" as="targetPoint" />
          </mxGeometry>
        </mxCell>
        <mxCell id="r0sBvm1U4i-7NRLblu73-4" value="&lt;div&gt;&lt;i style=&quot;font-weight: normal;&quot;&gt;«Enum»&lt;/i&gt;&lt;/div&gt;&lt;div&gt;&lt;span style=&quot;text-align: left;&quot;&gt;FeeRole&lt;/span&gt;&lt;/div&gt;" style="swimlane;fontStyle=1;align=center;verticalAlign=top;childLayout=stackLayout;horizontal=1;startSize=42;horizontalStack=0;resizeParent=1;resizeParentMax=0;resizeLast=0;collapsible=1;marginBottom=0;whiteSpace=wrap;html=1;fillColor=#bac8d3;strokeColor=#23445d;" parent="WIyWlLk6GJQsqaUBKTNV-1" vertex="1">
          <mxGeometry x="1151.67" y="159.99999999999997" width="100" height="146" as="geometry" />
>>>>>>> Stashed changes
        </mxCell>
        <mxCell id="r0sBvm1U4i-7NRLblu73-5" value="Subscription" style="text;strokeColor=none;fillColor=none;align=left;verticalAlign=top;spacingLeft=4;spacingRight=4;overflow=hidden;rotatable=0;points=[[0,0.5],[1,0.5]];portConstraint=eastwest;whiteSpace=wrap;html=1;" parent="r0sBvm1U4i-7NRLblu73-4" vertex="1">
          <mxGeometry y="42" width="100" height="26" as="geometry" />
        </mxCell>
        <mxCell id="r0sBvm1U4i-7NRLblu73-6" value="Tuition" style="text;strokeColor=none;fillColor=none;align=left;verticalAlign=top;spacingLeft=4;spacingRight=4;overflow=hidden;rotatable=0;points=[[0,0.5],[1,0.5]];portConstraint=eastwest;whiteSpace=wrap;html=1;" parent="r0sBvm1U4i-7NRLblu73-4" vertex="1">
          <mxGeometry y="68" width="100" height="26" as="geometry" />
        </mxCell>
        <mxCell id="r0sBvm1U4i-7NRLblu73-7" value="Late" style="text;strokeColor=none;fillColor=none;align=left;verticalAlign=top;spacingLeft=4;spacingRight=4;overflow=hidden;rotatable=0;points=[[0,0.5],[1,0.5]];portConstraint=eastwest;whiteSpace=wrap;html=1;" parent="r0sBvm1U4i-7NRLblu73-4" vertex="1">
          <mxGeometry y="94" width="100" height="26" as="geometry" />
        </mxCell>
        <mxCell id="r0sBvm1U4i-7NRLblu73-19" value="Renewal" style="text;strokeColor=none;fillColor=none;align=left;verticalAlign=top;spacingLeft=4;spacingRight=4;overflow=hidden;rotatable=0;points=[[0,0.5],[1,0.5]];portConstraint=eastwest;whiteSpace=wrap;html=1;" parent="r0sBvm1U4i-7NRLblu73-4" vertex="1">
          <mxGeometry y="120" width="100" height="26" as="geometry" />
        </mxCell>
        <mxCell id="r0sBvm1U4i-7NRLblu73-10" value="Use" style="endArrow=open;endSize=12;dashed=1;html=1;rounded=0;entryX=0;entryY=0.5;entryDx=0;entryDy=0;exitX=1;exitY=0.5;exitDx=0;exitDy=0;" parent="WIyWlLk6GJQsqaUBKTNV-1" source="R4sOLZEa-TKl13n7Rvy1-74" target="r0sBvm1U4i-7NRLblu73-5" edge="1">
          <mxGeometry width="160" relative="1" as="geometry">
<<<<<<< Updated upstream
            <mxPoint x="1283.41" y="403" as="sourcePoint" />
            <mxPoint x="1443.4100000000003" y="403" as="targetPoint" />
          </mxGeometry>
        </mxCell>
        <mxCell id="Na8gEu5Ey_Q5j3jmP6cr-0" value="Utils" style="swimlane;fontStyle=1;align=center;verticalAlign=top;childLayout=stackLayout;horizontal=1;startSize=26;horizontalStack=0;resizeParent=1;resizeParentMax=0;resizeLast=0;collapsible=1;marginBottom=0;whiteSpace=wrap;html=1;fillColor=#dae8fc;strokeColor=#6c8ebf;" parent="WIyWlLk6GJQsqaUBKTNV-1" vertex="1">
          <mxGeometry x="1630.0000000000002" y="111.92" width="180" height="208" as="geometry" />
=======
            <mxPoint x="1128.0099999999998" y="278.04999999999995" as="sourcePoint" />
            <mxPoint x="1288.0099999999998" y="278.04999999999995" as="targetPoint" />
          </mxGeometry>
        </mxCell>
        <mxCell id="Na8gEu5Ey_Q5j3jmP6cr-0" value="Utils" style="swimlane;fontStyle=1;align=center;verticalAlign=top;childLayout=stackLayout;horizontal=1;startSize=26;horizontalStack=0;resizeParent=1;resizeParentMax=0;resizeLast=0;collapsible=1;marginBottom=0;whiteSpace=wrap;html=1;fillColor=#dae8fc;strokeColor=#6c8ebf;" parent="WIyWlLk6GJQsqaUBKTNV-1" vertex="1">
          <mxGeometry x="1596.3200000000002" y="1101.92" width="180" height="182" as="geometry" />
>>>>>>> Stashed changes
        </mxCell>
        <mxCell id="Na8gEu5Ey_Q5j3jmP6cr-1" value="CURRENT_ACAD_YEAR" style="text;strokeColor=none;fillColor=none;align=left;verticalAlign=top;spacingLeft=4;spacingRight=4;overflow=hidden;rotatable=0;points=[[0,0.5],[1,0.5]];portConstraint=eastwest;whiteSpace=wrap;html=1;" parent="Na8gEu5Ey_Q5j3jmP6cr-0" vertex="1">
          <mxGeometry y="26" width="180" height="26" as="geometry" />
        </mxCell>
        <mxCell id="dbMkXpxAg-lx6A8s1NES-0" value="ACAD_YEAR_OPEN" style="text;strokeColor=none;fillColor=none;align=left;verticalAlign=top;spacingLeft=4;spacingRight=4;overflow=hidden;rotatable=0;points=[[0,0.5],[1,0.5]];portConstraint=eastwest;whiteSpace=wrap;html=1;" parent="Na8gEu5Ey_Q5j3jmP6cr-0" vertex="1">
          <mxGeometry y="52" width="180" height="26" as="geometry" />
        </mxCell>
<<<<<<< Updated upstream
        <mxCell id="vqzUbXH-pOmgLkUmb4zZ-5" value="NEXT_PAYMENT_SUFIX" style="text;strokeColor=none;fillColor=none;align=left;verticalAlign=top;spacingLeft=4;spacingRight=4;overflow=hidden;rotatable=0;points=[[0,0.5],[1,0.5]];portConstraint=eastwest;whiteSpace=wrap;html=1;" parent="Na8gEu5Ey_Q5j3jmP6cr-0" vertex="1">
          <mxGeometry y="78" width="180" height="26" as="geometry" />
        </mxCell>
        <mxCell id="qj3KO4-LrgshDppNUJZX-1" value="NEXT_STUDENT_SUFIX" style="text;strokeColor=none;fillColor=none;align=left;verticalAlign=top;spacingLeft=4;spacingRight=4;overflow=hidden;rotatable=0;points=[[0,0.5],[1,0.5]];portConstraint=eastwest;whiteSpace=wrap;html=1;" parent="Na8gEu5Ey_Q5j3jmP6cr-0" vertex="1">
          <mxGeometry y="104" width="180" height="26" as="geometry" />
        </mxCell>
        <mxCell id="qj3KO4-LrgshDppNUJZX-2" value="NEXT_TEACHER_SUFIX" style="text;strokeColor=none;fillColor=none;align=left;verticalAlign=top;spacingLeft=4;spacingRight=4;overflow=hidden;rotatable=0;points=[[0,0.5],[1,0.5]];portConstraint=eastwest;whiteSpace=wrap;html=1;" parent="Na8gEu5Ey_Q5j3jmP6cr-0" vertex="1">
          <mxGeometry y="130" width="180" height="26" as="geometry" />
        </mxCell>
        <mxCell id="qj3KO4-LrgshDppNUJZX-3" value="NEXT_SECRETARY_SUFIX" style="text;strokeColor=none;fillColor=none;align=left;verticalAlign=top;spacingLeft=4;spacingRight=4;overflow=hidden;rotatable=0;points=[[0,0.5],[1,0.5]];portConstraint=eastwest;whiteSpace=wrap;html=1;" parent="Na8gEu5Ey_Q5j3jmP6cr-0" vertex="1">
          <mxGeometry y="156" width="180" height="26" as="geometry" />
        </mxCell>
        <mxCell id="qj3KO4-LrgshDppNUJZX-5" value="NEXT_HELPDESK_SUFIX" style="text;strokeColor=none;fillColor=none;align=left;verticalAlign=top;spacingLeft=4;spacingRight=4;overflow=hidden;rotatable=0;points=[[0,0.5],[1,0.5]];portConstraint=eastwest;whiteSpace=wrap;html=1;" parent="Na8gEu5Ey_Q5j3jmP6cr-0" vertex="1">
          <mxGeometry y="182" width="180" height="26" as="geometry" />
        </mxCell>
        <mxCell id="Na8gEu5Ey_Q5j3jmP6cr-4" value="Tabela para guardar informações úteis, mas que não se relaciona diretamente com as outras entidades" style="text;align=center;fontStyle=1;verticalAlign=middle;spacingLeft=3;spacingRight=3;rotatable=0;points=[[0,0.5],[1,0.5]];portConstraint=eastwest;html=1;fontColor=#454545;fontSize=16;textShadow=1;whiteSpace=wrap;" parent="WIyWlLk6GJQsqaUBKTNV-1" vertex="1">
          <mxGeometry x="1538.0000000000002" y="29.99999999999993" width="364" height="70" as="geometry" />
        </mxCell>
        <mxCell id="qj3KO4-LrgshDppNUJZX-6" value="AcadYear" style="swimlane;fontStyle=1;align=center;verticalAlign=top;childLayout=stackLayout;horizontal=1;startSize=26;horizontalStack=0;resizeParent=1;resizeParentMax=0;resizeLast=0;collapsible=1;marginBottom=0;whiteSpace=wrap;html=1;fillColor=#dae8fc;strokeColor=#6c8ebf;" parent="WIyWlLk6GJQsqaUBKTNV-1" vertex="1">
          <mxGeometry x="1430" y="111.91999999999977" width="170" height="104" as="geometry" />
=======
        <mxCell id="qj3KO4-LrgshDppNUJZX-1" value="NEXT_STUDENT_SUFIX" style="text;strokeColor=none;fillColor=none;align=left;verticalAlign=top;spacingLeft=4;spacingRight=4;overflow=hidden;rotatable=0;points=[[0,0.5],[1,0.5]];portConstraint=eastwest;whiteSpace=wrap;html=1;" parent="Na8gEu5Ey_Q5j3jmP6cr-0" vertex="1">
          <mxGeometry y="78" width="180" height="26" as="geometry" />
        </mxCell>
        <mxCell id="qj3KO4-LrgshDppNUJZX-2" value="NEXT_TEACHER_SUFIX" style="text;strokeColor=none;fillColor=none;align=left;verticalAlign=top;spacingLeft=4;spacingRight=4;overflow=hidden;rotatable=0;points=[[0,0.5],[1,0.5]];portConstraint=eastwest;whiteSpace=wrap;html=1;" parent="Na8gEu5Ey_Q5j3jmP6cr-0" vertex="1">
          <mxGeometry y="104" width="180" height="26" as="geometry" />
        </mxCell>
        <mxCell id="qj3KO4-LrgshDppNUJZX-3" value="NEXT_SECRETARY_SUFIX" style="text;strokeColor=none;fillColor=none;align=left;verticalAlign=top;spacingLeft=4;spacingRight=4;overflow=hidden;rotatable=0;points=[[0,0.5],[1,0.5]];portConstraint=eastwest;whiteSpace=wrap;html=1;" parent="Na8gEu5Ey_Q5j3jmP6cr-0" vertex="1">
          <mxGeometry y="130" width="180" height="26" as="geometry" />
        </mxCell>
        <mxCell id="qj3KO4-LrgshDppNUJZX-5" value="NEXT_HELPDESK_SUFIX" style="text;strokeColor=none;fillColor=none;align=left;verticalAlign=top;spacingLeft=4;spacingRight=4;overflow=hidden;rotatable=0;points=[[0,0.5],[1,0.5]];portConstraint=eastwest;whiteSpace=wrap;html=1;" parent="Na8gEu5Ey_Q5j3jmP6cr-0" vertex="1">
          <mxGeometry y="156" width="180" height="26" as="geometry" />
        </mxCell>
        <mxCell id="Na8gEu5Ey_Q5j3jmP6cr-4" value="Tabela para guardar informações úteis, mas que não se relaciona diretamente com as outras entidades" style="text;align=center;fontStyle=1;verticalAlign=middle;spacingLeft=3;spacingRight=3;rotatable=0;points=[[0,0.5],[1,0.5]];portConstraint=eastwest;html=1;fontColor=#454545;fontSize=16;textShadow=1;whiteSpace=wrap;" parent="WIyWlLk6GJQsqaUBKTNV-1" vertex="1">
          <mxGeometry x="1504.3200000000002" y="1020" width="364" height="70" as="geometry" />
        </mxCell>
        <mxCell id="Na8gEu5Ey_Q5j3jmP6cr-7" value="1" style="edgeLabel;resizable=0;html=1;align=right;verticalAlign=bottom;" parent="WIyWlLk6GJQsqaUBKTNV-1" connectable="0" vertex="1">
          <mxGeometry x="1114.1269979578778" y="678.8445205319274" as="geometry">
            <mxPoint x="-95" y="-146" as="offset" />
          </mxGeometry>
        </mxCell>
        <mxCell id="qj3KO4-LrgshDppNUJZX-6" value="AcadYear" style="swimlane;fontStyle=1;align=center;verticalAlign=top;childLayout=stackLayout;horizontal=1;startSize=26;horizontalStack=0;resizeParent=1;resizeParentMax=0;resizeLast=0;collapsible=1;marginBottom=0;whiteSpace=wrap;html=1;fillColor=#dae8fc;strokeColor=#6c8ebf;" parent="WIyWlLk6GJQsqaUBKTNV-1" vertex="1">
          <mxGeometry x="1280.0000000000002" y="1101.9199999999998" width="170" height="104" as="geometry" />
>>>>>>> Stashed changes
        </mxCell>
        <mxCell id="qj3KO4-LrgshDppNUJZX-7" value="- &lt;b&gt;name&lt;/b&gt;: text" style="text;strokeColor=none;fillColor=none;align=left;verticalAlign=top;spacingLeft=4;spacingRight=4;overflow=hidden;rotatable=0;points=[[0,0.5],[1,0.5]];portConstraint=eastwest;whiteSpace=wrap;html=1;" parent="qj3KO4-LrgshDppNUJZX-6" vertex="1">
          <mxGeometry y="26" width="170" height="26" as="geometry" />
        </mxCell>
        <mxCell id="qj3KO4-LrgshDppNUJZX-8" value="- &lt;b&gt;created_at: &lt;/b&gt;date" style="text;strokeColor=none;fillColor=none;align=left;verticalAlign=top;spacingLeft=4;spacingRight=4;overflow=hidden;rotatable=0;points=[[0,0.5],[1,0.5]];portConstraint=eastwest;whiteSpace=wrap;html=1;" parent="qj3KO4-LrgshDppNUJZX-6" vertex="1">
          <mxGeometry y="52" width="170" height="26" as="geometry" />
        </mxCell>
        <mxCell id="qj3KO4-LrgshDppNUJZX-9" value="- &lt;b&gt;finished_at&lt;/b&gt;: date" style="text;strokeColor=none;fillColor=none;align=left;verticalAlign=top;spacingLeft=4;spacingRight=4;overflow=hidden;rotatable=0;points=[[0,0.5],[1,0.5]];portConstraint=eastwest;whiteSpace=wrap;html=1;" parent="qj3KO4-LrgshDppNUJZX-6" vertex="1">
          <mxGeometry y="78" width="170" height="26" as="geometry" />
        </mxCell>
<<<<<<< Updated upstream
        <mxCell id="O_hNdu-dtPVLeKDtcmgr-2" value="0...*" style="edgeLabel;resizable=0;html=1;align=right;verticalAlign=bottom;" parent="WIyWlLk6GJQsqaUBKTNV-1" connectable="0" vertex="1">
          <mxGeometry x="896.0569979578777" y="593.0045205319271" as="geometry" />
        </mxCell>
        <mxCell id="O_hNdu-dtPVLeKDtcmgr-6" value="1" style="edgeLabel;resizable=0;html=1;align=right;verticalAlign=bottom;" parent="WIyWlLk6GJQsqaUBKTNV-1" connectable="0" vertex="1">
          <mxGeometry x="1100.9969979578777" y="669.0045205319271" as="geometry" />
        </mxCell>
        <mxCell id="O_hNdu-dtPVLeKDtcmgr-21" value="Payment" style="swimlane;fontStyle=1;align=center;verticalAlign=top;childLayout=stackLayout;horizontal=1;startSize=26;horizontalStack=0;resizeParent=1;resizeParentMax=0;resizeLast=0;collapsible=1;marginBottom=0;whiteSpace=wrap;html=1;fillColor=#dae8fc;strokeColor=#6c8ebf;" parent="WIyWlLk6GJQsqaUBKTNV-1" vertex="1">
          <mxGeometry x="995.0000000000002" y="343.05000000000007" width="160" height="104" as="geometry">
            <mxRectangle x="195" y="661" width="80" height="30" as="alternateBounds" />
          </mxGeometry>
        </mxCell>
        <mxCell id="O_hNdu-dtPVLeKDtcmgr-22" value="- &lt;b&gt;reference&lt;/b&gt;: text" style="text;strokeColor=none;fillColor=none;align=left;verticalAlign=top;spacingLeft=4;spacingRight=4;overflow=hidden;rotatable=0;points=[[0,0.5],[1,0.5]];portConstraint=eastwest;whiteSpace=wrap;html=1;" parent="O_hNdu-dtPVLeKDtcmgr-21" vertex="1">
          <mxGeometry y="26" width="160" height="26" as="geometry" />
        </mxCell>
        <mxCell id="O_hNdu-dtPVLeKDtcmgr-26" value="-&lt;b&gt; payed&lt;/b&gt;: boolean" style="text;strokeColor=none;fillColor=none;align=left;verticalAlign=top;spacingLeft=4;spacingRight=4;overflow=hidden;rotatable=0;points=[[0,0.5],[1,0.5]];portConstraint=eastwest;whiteSpace=wrap;html=1;" parent="O_hNdu-dtPVLeKDtcmgr-21" vertex="1">
          <mxGeometry y="52" width="160" height="26" as="geometry" />
        </mxCell>
        <mxCell id="XNBBwm3EtesZwBzHWUtI-1" value="-&lt;b&gt; date&lt;/b&gt;: date" style="text;strokeColor=none;fillColor=none;align=left;verticalAlign=top;spacingLeft=4;spacingRight=4;overflow=hidden;rotatable=0;points=[[0,0.5],[1,0.5]];portConstraint=eastwest;whiteSpace=wrap;html=1;" parent="O_hNdu-dtPVLeKDtcmgr-21" vertex="1">
          <mxGeometry y="78" width="160" height="26" as="geometry" />
        </mxCell>
        <mxCell id="O_hNdu-dtPVLeKDtcmgr-32" style="edgeStyle=orthogonalEdgeStyle;rounded=0;orthogonalLoop=1;jettySize=auto;html=1;exitX=1;exitY=0.5;exitDx=0;exitDy=0;entryX=0;entryY=0.5;entryDx=0;entryDy=0;endArrow=none;endFill=0;" parent="WIyWlLk6GJQsqaUBKTNV-1" source="lyx5QjdWIEwCXilWNKK9-18" target="x0Ebby3f6C95ohtFIqQS-35" edge="1">
          <mxGeometry relative="1" as="geometry" />
        </mxCell>
        <mxCell id="O_hNdu-dtPVLeKDtcmgr-33" value="- &lt;b&gt;course&lt;/b&gt;" style="edgeLabel;resizable=0;html=1;align=right;verticalAlign=bottom;" parent="WIyWlLk6GJQsqaUBKTNV-1" connectable="0" vertex="1">
          <mxGeometry x="1373.3905171201845" y="700.9951263160123" as="geometry" />
        </mxCell>
        <mxCell id="O_hNdu-dtPVLeKDtcmgr-34" value="1" style="edgeLabel;resizable=0;html=1;align=right;verticalAlign=bottom;" parent="WIyWlLk6GJQsqaUBKTNV-1" connectable="0" vertex="1">
          <mxGeometry x="1357.9969979578777" y="682.0045205319271" as="geometry" />
        </mxCell>
        <mxCell id="O_hNdu-dtPVLeKDtcmgr-35" style="edgeStyle=orthogonalEdgeStyle;rounded=0;orthogonalLoop=1;jettySize=auto;html=1;exitX=0;exitY=0.5;exitDx=0;exitDy=0;entryX=0.5;entryY=0;entryDx=0;entryDy=0;endArrow=none;endFill=0;" parent="WIyWlLk6GJQsqaUBKTNV-1" source="R4sOLZEa-TKl13n7Rvy1-74" target="x0Ebby3f6C95ohtFIqQS-38" edge="1">
          <mxGeometry relative="1" as="geometry">
            <mxPoint x="1234.54" y="571.9999999999998" as="sourcePoint" />
          </mxGeometry>
        </mxCell>
        <mxCell id="O_hNdu-dtPVLeKDtcmgr-37" value="- &lt;b&gt;enrollment&lt;/b&gt;" style="edgeLabel;resizable=0;html=1;align=right;verticalAlign=bottom;" parent="WIyWlLk6GJQsqaUBKTNV-1" connectable="0" vertex="1">
          <mxGeometry x="1270.0005171201844" y="636.9951263160123" as="geometry" />
        </mxCell>
        <mxCell id="O_hNdu-dtPVLeKDtcmgr-38" value="1" style="edgeLabel;resizable=0;html=1;align=right;verticalAlign=bottom;" parent="WIyWlLk6GJQsqaUBKTNV-1" connectable="0" vertex="1">
          <mxGeometry x="1192.4569979578778" y="637.0045205319271" as="geometry" />
        </mxCell>
        <mxCell id="O_hNdu-dtPVLeKDtcmgr-40" style="edgeStyle=orthogonalEdgeStyle;rounded=0;orthogonalLoop=1;jettySize=auto;html=1;exitX=0.5;exitY=0;exitDx=0;exitDy=0;endArrow=none;endFill=0;entryX=0.5;entryY=1.036;entryDx=0;entryDy=0;entryPerimeter=0;" parent="WIyWlLk6GJQsqaUBKTNV-1" source="O_hNdu-dtPVLeKDtcmgr-21" target="vqzUbXH-pOmgLkUmb4zZ-11" edge="1">
          <mxGeometry relative="1" as="geometry">
            <mxPoint x="1076" y="260" as="targetPoint" />
          </mxGeometry>
        </mxCell>
        <mxCell id="O_hNdu-dtPVLeKDtcmgr-41" style="edgeStyle=orthogonalEdgeStyle;rounded=0;orthogonalLoop=1;jettySize=auto;html=1;exitX=1;exitY=0.25;exitDx=0;exitDy=0;entryX=0;entryY=0.25;entryDx=0;entryDy=0;endArrow=none;endFill=0;" parent="WIyWlLk6GJQsqaUBKTNV-1" source="O_hNdu-dtPVLeKDtcmgr-21" target="R4sOLZEa-TKl13n7Rvy1-77" edge="1">
          <mxGeometry relative="1" as="geometry" />
        </mxCell>
        <mxCell id="O_hNdu-dtPVLeKDtcmgr-46" value="- &lt;b&gt;invoice&lt;/b&gt;" style="edgeLabel;resizable=0;html=1;align=right;verticalAlign=bottom;" parent="WIyWlLk6GJQsqaUBKTNV-1" connectable="0" vertex="1">
          <mxGeometry x="1123.5005171201844" y="282.92512631601227" as="geometry" />
        </mxCell>
        <mxCell id="O_hNdu-dtPVLeKDtcmgr-47" value="1" style="edgeLabel;resizable=0;html=1;align=right;verticalAlign=bottom;" parent="WIyWlLk6GJQsqaUBKTNV-1" connectable="0" vertex="1">
          <mxGeometry x="1068.9969979578777" y="282.92452053192716" as="geometry" />
        </mxCell>
        <mxCell id="O_hNdu-dtPVLeKDtcmgr-48" value="- &lt;b&gt;payment&lt;/b&gt;" style="edgeLabel;resizable=0;html=1;align=right;verticalAlign=bottom;" parent="WIyWlLk6GJQsqaUBKTNV-1" connectable="0" vertex="1">
          <mxGeometry x="1130.5205171201844" y="336.00512631601225" as="geometry" />
        </mxCell>
        <mxCell id="O_hNdu-dtPVLeKDtcmgr-49" value="1" style="edgeLabel;resizable=0;html=1;align=right;verticalAlign=bottom;" parent="WIyWlLk6GJQsqaUBKTNV-1" connectable="0" vertex="1">
          <mxGeometry x="1069.9769979578778" y="336.00452053192714" as="geometry" />
        </mxCell>
        <mxCell id="O_hNdu-dtPVLeKDtcmgr-50" value="-&lt;b&gt; fee&lt;/b&gt;" style="edgeLabel;resizable=0;html=1;align=left;verticalAlign=bottom;" parent="WIyWlLk6GJQsqaUBKTNV-1" connectable="0" vertex="1">
          <mxGeometry x="1204.46" y="365.0020000000002" as="geometry" />
        </mxCell>
        <mxCell id="O_hNdu-dtPVLeKDtcmgr-51" value="1" style="edgeLabel;resizable=0;html=1;align=right;verticalAlign=bottom;" parent="WIyWlLk6GJQsqaUBKTNV-1" connectable="0" vertex="1">
          <mxGeometry x="1226.9969979578777" y="388.05452053192715" as="geometry" />
        </mxCell>
        <mxCell id="vqzUbXH-pOmgLkUmb4zZ-1" value="-&lt;b&gt; student&lt;/b&gt;" style="edgeLabel;resizable=0;html=1;align=left;verticalAlign=bottom;" parent="WIyWlLk6GJQsqaUBKTNV-1" connectable="0" vertex="1">
          <mxGeometry x="866.0600000000001" y="406.0020000000002" as="geometry" />
        </mxCell>
        <mxCell id="vqzUbXH-pOmgLkUmb4zZ-2" value="1" style="edgeLabel;resizable=0;html=1;align=right;verticalAlign=bottom;" parent="WIyWlLk6GJQsqaUBKTNV-1" connectable="0" vertex="1">
          <mxGeometry x="879.5969979578778" y="428.05452053192715" as="geometry" />
        </mxCell>
        <mxCell id="vqzUbXH-pOmgLkUmb4zZ-3" value="-&lt;b&gt; payments&lt;/b&gt;" style="edgeLabel;resizable=0;html=1;align=left;verticalAlign=bottom;" parent="WIyWlLk6GJQsqaUBKTNV-1" connectable="0" vertex="1">
          <mxGeometry x="928.94" y="406.0020000000002" as="geometry" />
        </mxCell>
        <mxCell id="vqzUbXH-pOmgLkUmb4zZ-4" value="0...*" style="edgeLabel;resizable=0;html=1;align=right;verticalAlign=bottom;" parent="WIyWlLk6GJQsqaUBKTNV-1" connectable="0" vertex="1">
          <mxGeometry x="987.9969979578777" y="428.05452053192715" as="geometry" />
=======
        <mxCell id="ZZszPudMttv8xMkQPxiv-1" style="edgeStyle=orthogonalEdgeStyle;rounded=0;orthogonalLoop=1;jettySize=auto;html=1;exitX=0;exitY=0.5;exitDx=0;exitDy=0;entryX=1;entryY=0.5;entryDx=0;entryDy=0;endArrow=none;endFill=0;" edge="1" parent="WIyWlLk6GJQsqaUBKTNV-1" source="rPhPrc9EmJT0JEbO7Rp2-1" target="x0Ebby3f6C95ohtFIqQS-39">
          <mxGeometry relative="1" as="geometry">
            <Array as="points">
              <mxPoint x="1301.67" y="603.84" />
              <mxPoint x="1301.67" y="540.84" />
            </Array>
          </mxGeometry>
        </mxCell>
        <mxCell id="ZZszPudMttv8xMkQPxiv-3" style="edgeStyle=orthogonalEdgeStyle;rounded=0;orthogonalLoop=1;jettySize=auto;html=1;exitX=0;exitY=0.5;exitDx=0;exitDy=0;entryX=1;entryY=0.5;entryDx=0;entryDy=0;endArrow=none;endFill=0;" edge="1" parent="WIyWlLk6GJQsqaUBKTNV-1" source="eIcUPRR4atYr4VNpyihu-0" target="R4sOLZEa-TKl13n7Rvy1-19">
          <mxGeometry relative="1" as="geometry">
            <Array as="points">
              <mxPoint x="1302" y="656" />
              <mxPoint x="1302" y="703" />
            </Array>
          </mxGeometry>
        </mxCell>
        <mxCell id="ZZszPudMttv8xMkQPxiv-4" value="- &lt;b&gt;module&lt;/b&gt;" style="edgeLabel;resizable=0;html=1;align=left;verticalAlign=bottom;" connectable="0" vertex="1" parent="WIyWlLk6GJQsqaUBKTNV-1">
          <mxGeometry x="1200.67" y="702.8400000000001" as="geometry" />
        </mxCell>
        <mxCell id="ZZszPudMttv8xMkQPxiv-5" value="1" style="edgeLabel;resizable=0;html=1;align=right;verticalAlign=bottom;" connectable="0" vertex="1" parent="WIyWlLk6GJQsqaUBKTNV-1">
          <mxGeometry x="1231.6669979578778" y="737.8445205319274" as="geometry">
            <mxPoint x="-11" y="-11" as="offset" />
          </mxGeometry>
        </mxCell>
        <mxCell id="ZZszPudMttv8xMkQPxiv-6" value="- &lt;b&gt;enrollment&lt;/b&gt;" style="edgeLabel;resizable=0;html=1;align=left;verticalAlign=bottom;" connectable="0" vertex="1" parent="WIyWlLk6GJQsqaUBKTNV-1">
          <mxGeometry x="1200.67" y="537.84" as="geometry" />
        </mxCell>
        <mxCell id="ZZszPudMttv8xMkQPxiv-7" value="1" style="edgeLabel;resizable=0;html=1;align=right;verticalAlign=bottom;" connectable="0" vertex="1" parent="WIyWlLk6GJQsqaUBKTNV-1">
          <mxGeometry x="1216.6669979578778" y="539.8445205319273" as="geometry">
            <mxPoint x="7" y="26" as="offset" />
          </mxGeometry>
        </mxCell>
        <mxCell id="ZZszPudMttv8xMkQPxiv-12" value="Use" style="endArrow=open;endSize=12;dashed=1;html=1;rounded=0;entryX=0;entryY=0.5;entryDx=0;entryDy=0;exitX=1;exitY=0.5;exitDx=0;exitDy=0;" edge="1" parent="WIyWlLk6GJQsqaUBKTNV-1" source="lyx5QjdWIEwCXilWNKK9-18" target="lyx5QjdWIEwCXilWNKK9-26">
          <mxGeometry width="160" relative="1" as="geometry">
            <mxPoint x="1180" y="440" as="sourcePoint" />
            <mxPoint x="1340" y="440" as="targetPoint" />
          </mxGeometry>
        </mxCell>
        <mxCell id="ZZszPudMttv8xMkQPxiv-14" style="edgeStyle=orthogonalEdgeStyle;rounded=0;orthogonalLoop=1;jettySize=auto;html=1;exitX=1;exitY=0.5;exitDx=0;exitDy=0;entryX=0.505;entryY=1.006;entryDx=0;entryDy=0;entryPerimeter=0;endArrow=none;endFill=0;" edge="1" parent="WIyWlLk6GJQsqaUBKTNV-1" source="R4sOLZEa-TKl13n7Rvy1-5" target="93AXq8a3GErI8auWy1jn-1">
          <mxGeometry relative="1" as="geometry" />
        </mxCell>
        <mxCell id="ZZszPudMttv8xMkQPxiv-16" style="edgeStyle=orthogonalEdgeStyle;rounded=0;orthogonalLoop=1;jettySize=auto;html=1;entryX=0.341;entryY=1.006;entryDx=0;entryDy=0;entryPerimeter=0;endArrow=none;endFill=0;" edge="1" parent="WIyWlLk6GJQsqaUBKTNV-1" source="x0Ebby3f6C95ohtFIqQS-55" target="lyx5QjdWIEwCXilWNKK9-53">
          <mxGeometry relative="1" as="geometry" />
        </mxCell>
        <mxCell id="ZZszPudMttv8xMkQPxiv-17" value="- &lt;b&gt;unit&lt;/b&gt;" style="text;strokeColor=none;fillColor=none;align=left;verticalAlign=top;spacingLeft=4;spacingRight=4;overflow=hidden;rotatable=0;points=[[0,0.5],[1,0.5]];portConstraint=eastwest;whiteSpace=wrap;html=1;" vertex="1" parent="WIyWlLk6GJQsqaUBKTNV-1">
          <mxGeometry x="859.6700000000001" y="910.0000000000001" width="66.46" height="26" as="geometry" />
        </mxCell>
        <mxCell id="ZZszPudMttv8xMkQPxiv-18" value="1" style="edgeLabel;resizable=0;html=1;align=right;verticalAlign=bottom;" connectable="0" vertex="1" parent="WIyWlLk6GJQsqaUBKTNV-1">
          <mxGeometry x="849.9969979578779" y="933.0045205319275" as="geometry" />
        </mxCell>
        <mxCell id="ZZszPudMttv8xMkQPxiv-21" value="Many-To-Many: &quot;enrollment_fee&quot;" style="text;align=center;fontStyle=1;verticalAlign=middle;spacingLeft=3;spacingRight=3;rotatable=0;points=[[0,0.5],[1,0.5]];portConstraint=eastwest;html=1;fontColor=#0008ff;fontSize=15;textShadow=1;whiteSpace=wrap;" vertex="1" parent="WIyWlLk6GJQsqaUBKTNV-1">
          <mxGeometry x="810" y="356.9" width="126.37" height="62" as="geometry" />
        </mxCell>
        <mxCell id="ZZszPudMttv8xMkQPxiv-22" value="0...*" style="edgeLabel;resizable=0;html=1;align=right;verticalAlign=bottom;" connectable="0" vertex="1" parent="WIyWlLk6GJQsqaUBKTNV-1">
          <mxGeometry x="843.9969979578777" y="476.5145205319272" as="geometry">
            <mxPoint x="10" y="9" as="offset" />
          </mxGeometry>
        </mxCell>
        <mxCell id="ZZszPudMttv8xMkQPxiv-23" value="-&lt;b&gt; registries&lt;/b&gt;" style="edgeLabel;resizable=0;html=1;align=left;verticalAlign=bottom;" connectable="0" vertex="1" parent="WIyWlLk6GJQsqaUBKTNV-1">
          <mxGeometry x="820" y="461.00200000000024" as="geometry" />
        </mxCell>
        <mxCell id="ZZszPudMttv8xMkQPxiv-24" value="- &lt;b&gt;fees&lt;/b&gt;" style="edgeLabel;resizable=0;html=1;align=left;verticalAlign=bottom;" connectable="0" vertex="1" parent="WIyWlLk6GJQsqaUBKTNV-1">
          <mxGeometry x="940" y="343.9500000000001" as="geometry" />
        </mxCell>
        <mxCell id="ZZszPudMttv8xMkQPxiv-25" value="11" style="edgeLabel;resizable=0;html=1;align=right;verticalAlign=bottom;" connectable="0" vertex="1" parent="WIyWlLk6GJQsqaUBKTNV-1">
          <mxGeometry x="919.9969979578777" y="348.9545205319272" as="geometry">
            <mxPoint x="11" y="-4" as="offset" />
          </mxGeometry>
        </mxCell>
        <mxCell id="ZZszPudMttv8xMkQPxiv-26" style="edgeStyle=orthogonalEdgeStyle;rounded=0;orthogonalLoop=1;jettySize=auto;html=1;endArrow=none;endFill=0;" edge="1" parent="WIyWlLk6GJQsqaUBKTNV-1" source="93AXq8a3GErI8auWy1jn-1">
          <mxGeometry relative="1" as="geometry">
            <mxPoint x="1050" y="476" as="targetPoint" />
            <Array as="points">
              <mxPoint x="1050" y="307" />
              <mxPoint x="1050" y="476" />
            </Array>
          </mxGeometry>
        </mxCell>
        <mxCell id="ZZszPudMttv8xMkQPxiv-27" value="- &lt;b&gt;enrollment&lt;/b&gt;" style="edgeLabel;resizable=0;html=1;align=right;verticalAlign=bottom;" connectable="0" vertex="1" parent="WIyWlLk6GJQsqaUBKTNV-1">
          <mxGeometry x="1117.6705171201845" y="469.99512631601226" as="geometry" />
        </mxCell>
        <mxCell id="ZZszPudMttv8xMkQPxiv-28" value="1" style="edgeLabel;resizable=0;html=1;align=right;verticalAlign=bottom;" connectable="0" vertex="1" parent="WIyWlLk6GJQsqaUBKTNV-1">
          <mxGeometry x="1139.9969979578777" y="616.8445205319274" as="geometry">
            <mxPoint x="-95" y="-146" as="offset" />
          </mxGeometry>
>>>>>>> Stashed changes
        </mxCell>
      </root>
    </mxGraphModel>
  </diagram>
</mxfile>
